<?xml version="1.0" encoding="UTF-8"?>
<svg xmlns="http://www.w3.org/2000/svg" width="48" height="34" viewBox="0 0 48 34" fill="none">
  <g id="Слой_x0020_1">
    <g id="_1841635344176">
      <path id="Vector" fill-rule="evenodd" clip-rule="evenodd" d="M44.7278 33.8199H46.7468C47.0338 33.8199 47.2982 33.7742 47.4198 33.7742V28.5958L46.7107 28.6738C45.8716 28.7615 44.8527 28.6995 44.0354 28.5924C43.7699 28.5576 43.4903 28.5034 43.2268 28.4429C43.1311 28.421 43.0586 28.4066 42.9668 28.3835C42.6731 28.3097 42.3835 28.2309 42.0942 28.1383C42.0528 28.125 42.0254 28.1127 41.9749 28.0979C41.9289 28.0843 41.8988 28.073 41.8568 28.0563L41.2702 27.833C41.045 27.7407 40.8252 27.6483 40.6063 27.5388C40.5315 27.5013 40.4651 27.468 40.3934 27.4323L39.9779 27.209C39.8397 27.127 39.7069 27.0595 39.5744 26.9738C39.5077 26.9307 39.4455 26.89 39.3788 26.85L38.9949 26.5951C38.6285 26.3518 38.2961 26.0639 37.9605 25.7818L37.3444 25.2002C37.2182 25.0605 37.0692 24.9382 36.9553 24.7908L36.66 24.4474C36.3646 24.096 36.1017 23.7259 35.8469 23.3443L35.4809 22.7407C35.3958 22.5873 35.3032 22.4331 35.2285 22.2745C35.217 22.2502 35.2154 22.2417 35.2031 22.2201C35.0044 21.8727 34.7134 21.1195 34.5832 20.7526L34.4303 20.2667C34.3978 20.1374 34.3541 20.0223 34.3263 19.8916C34.3165 19.8454 34.3039 19.8066 34.2922 19.766C34.2793 19.7211 34.2746 19.686 34.2634 19.6351C34.2524 19.5851 34.2351 19.5447 34.234 19.4935H44.0549C44.0812 19.4935 44.0891 19.4855 44.0891 19.4593V14.372C44.0891 14.3457 44.0812 14.3378 44.0549 14.3378H34.234C34.234 14.2737 34.2506 14.255 34.2635 14.1962L34.3695 13.7775C34.399 13.686 34.4185 13.5961 34.4466 13.501C34.4734 13.4104 34.5025 13.3211 34.532 13.2328C34.6854 12.7732 34.8641 12.2882 35.0819 11.855C35.1047 11.8097 35.1166 11.7742 35.1389 11.7296L35.197 11.6165C35.2227 11.5731 35.2363 11.5375 35.26 11.497L35.3822 11.2657C35.4258 11.1841 35.4632 11.118 35.508 11.0379C35.5286 11.001 35.5487 10.9633 35.5707 10.9295C35.6878 10.7492 35.7902 10.5585 35.914 10.3831C36.1303 10.0766 36.3435 9.76682 36.5811 9.47607C36.61 9.44059 36.6377 9.40948 36.6635 9.37602C36.6891 9.34284 36.7133 9.31846 36.7418 9.28319C36.8733 9.12039 37.0143 8.96252 37.1626 8.81428C37.1939 8.78298 37.2167 8.75992 37.2482 8.72878L37.4682 8.50401C37.5987 8.39497 37.784 8.18856 37.9656 8.04318L38.5472 7.56399C38.5701 7.54558 38.5704 7.5425 38.5979 7.52351L38.7493 7.41254C38.7848 7.38573 38.8109 7.36828 38.8487 7.34087C38.9208 7.28876 38.9813 7.2433 39.0542 7.19278C39.1278 7.14176 39.1932 7.10055 39.2664 7.05139C39.4804 6.90787 39.7024 6.77775 39.9252 6.64932C40.3795 6.38739 40.8631 6.16632 41.3482 5.96221C41.6051 5.85415 41.8648 5.76976 42.1286 5.68184L42.3996 5.59921C42.8015 5.47008 43.736 5.25762 44.135 5.22442L44.4492 5.18502C44.712 5.149 45.1573 5.12145 45.435 5.12145L45.7755 5.1117C45.8788 5.12367 45.9993 5.12151 46.1194 5.12145C46.3485 5.1214 46.8719 5.16206 47.1071 5.19461C47.2089 5.2087 47.3119 5.23313 47.4198 5.23553V0.0570401L47.0123 0.0196909C46.9455 0.010745 46.721 0.00422517 46.4355 0H44.8598C44.7608 0.00216475 44.6922 0.00492855 44.6677 0.00829304L44.4197 0.0226123C43.9681 0.0449379 43.0546 0.173519 42.6072 0.263317C42.4637 0.29211 42.3261 0.319836 42.1794 0.348812C41.6959 0.444322 41.2293 0.576109 40.7599 0.720078L40.372 0.845452C39.9384 0.97724 39.3884 1.19601 38.9788 1.37999C38.9474 1.3941 38.9251 1.40119 38.8915 1.41814C38.8568 1.4357 38.8425 1.44172 38.8045 1.45664L38.0094 1.83636C37.7844 1.94796 37.5634 2.07552 37.3444 2.19792L36.392 2.78535C36.3366 2.81978 36.2933 2.85128 36.2415 2.88582C35.9833 3.05787 35.7325 3.24217 35.4838 3.42844C35.2625 3.59421 34.7322 4.01253 34.5675 4.17742L34.094 4.6051C33.9637 4.73057 33.5358 5.14519 33.4179 5.28629C33.4048 5.30196 33.4207 5.28318 33.4076 5.29883L32.963 5.7896C32.8502 5.9349 32.7217 6.0657 32.6077 6.20988L32.158 6.7868C31.8617 7.18109 31.5778 7.59409 31.3232 8.01653C31.2576 8.12544 31.1911 8.22716 31.1315 8.33809C31.0435 8.50185 30.9379 8.65748 30.8537 8.82458C30.7286 9.07321 30.5695 9.33058 30.4632 9.58605L30.2554 10.0398C29.9767 10.6436 29.7571 11.2734 29.556 11.9069C29.5152 12.0354 29.4778 12.1632 29.4385 12.3027C29.3624 12.5726 29.2835 12.8506 29.2277 13.1298L29.0945 13.7608C28.9912 14.2772 28.9184 14.8161 28.8727 15.3413C28.8667 15.4096 28.8518 15.501 28.8501 15.5696C28.8462 15.721 28.84 15.8991 28.8191 16.0519C28.7964 16.2171 28.8044 16.3948 28.8046 16.5621C28.8047 16.6628 28.7925 16.7208 28.793 16.8128C28.7969 17.4913 28.8339 18.1398 28.8976 18.7617C28.9281 19.0593 28.9725 19.3633 29.0229 19.663C29.0834 20.0231 29.1658 20.3864 29.2351 20.7397C29.2511 20.8216 29.2692 20.8684 29.2865 20.9507C29.2996 21.0135 29.3241 21.0912 29.3378 21.1503L29.4475 21.5539C29.5646 21.9456 29.6724 22.3374 29.8231 22.7181L29.9637 23.0908C29.978 23.1313 29.9884 23.147 30.0007 23.1793L30.1538 23.5508C30.2447 23.7599 30.3296 23.9706 30.4319 24.1739L31.3374 25.8348L32.2868 27.2123C32.4698 27.4562 32.6602 27.6865 32.8572 27.9194C33.0076 28.0971 33.1846 28.3064 33.3471 28.4675C33.3941 28.514 33.4331 28.5487 33.4746 28.6023L34.4478 29.5454C34.7375 29.8147 35.0494 30.0667 35.3634 30.3066C35.4128 30.3444 35.4612 30.383 35.5115 30.4208C35.5618 30.4585 35.6098 30.4943 35.6614 30.5332C35.6884 30.5536 35.7066 30.564 35.7349 30.5852C35.765 30.6079 35.7729 30.6175 35.8058 30.6398L36.4125 31.0596C36.465 31.0945 36.5195 31.1274 36.5723 31.1622C36.7246 31.2626 36.8824 31.3673 37.0439 31.4548L37.8688 31.9189C38.1007 32.0337 38.3231 32.1627 38.5636 32.262C38.5981 32.2763 38.6191 32.2896 38.6484 32.3027C38.6799 32.3168 38.7021 32.3238 38.7357 32.3408C38.796 32.3712 38.8531 32.3951 38.9172 32.4217C39.2173 32.5464 39.5207 32.6781 39.8247 32.7916L40.3977 32.9943C40.4628 33.016 40.5307 33.0329 40.5888 33.0542C40.7827 33.1252 40.9969 33.1791 41.1932 33.2368C41.326 33.2759 41.4604 33.3106 41.5978 33.3455C41.6704 33.364 41.7302 33.3735 41.8003 33.3939C41.9951 33.4507 42.2362 33.5 42.4367 33.5332C42.6558 33.5695 42.8684 33.6184 43.086 33.6481L43.7662 33.7435C44.045 33.7814 44.44 33.8199 44.7278 33.8199Z" fill="black"></path>
      <path id="Vector_2" fill-rule="evenodd" clip-rule="evenodd" d="M0.09375 15.9347V17.8966C0.09375 18.4709 0.240718 19.5087 0.360849 20.1047C0.390477 20.2516 0.418384 20.3871 0.444283 20.5231C0.487447 20.7495 0.575706 21.1017 0.639945 21.3198C0.696619 21.5123 0.741062 21.7063 0.805248 21.8959L1.25721 23.1777L1.55537 23.8833C1.60237 23.9992 1.667 24.1068 1.71504 24.2255C1.7575 24.3304 1.82336 24.4469 1.87695 24.5541C2.14911 25.0984 2.45943 25.62 2.78331 26.1343L3.71939 27.4339C3.89502 27.6696 4.0942 27.8885 4.28327 28.1133L4.767 28.6334C4.7919 28.6632 4.79524 28.6725 4.82437 28.7014C4.95392 28.8303 5.12945 29.0316 5.26085 29.1319C5.30857 29.1683 5.34506 29.2103 5.38917 29.2545C5.6776 29.5431 6.00069 29.8002 6.31375 30.0636L7.75192 31.1121C8.0173 31.2897 8.39183 31.5206 8.67515 31.6717C9.00169 31.8458 9.32525 32.039 9.66389 32.1886L10.8744 32.7118C10.9361 32.7368 10.9975 32.7559 11.0555 32.7817C11.104 32.8033 11.1755 32.8275 11.2305 32.8462C11.3538 32.888 11.4796 32.9426 11.6028 32.9758C11.6434 32.9868 11.663 32.9968 11.6956 33.0085C11.9015 33.0826 12.1582 33.1539 12.3695 33.2129C12.6253 33.2842 12.8954 33.3627 13.1568 33.4179L13.7691 33.547C13.9056 33.5745 14.055 33.5972 14.193 33.625C14.6591 33.7189 15.5788 33.8199 15.9942 33.8199H18.1127C18.1513 33.8185 18.1783 33.817 18.1909 33.8151L18.6652 33.7761C18.7041 33.7723 18.7318 33.7815 18.7318 33.74V28.6186C18.7318 28.5782 18.7149 28.5901 18.675 28.5934C18.635 28.5967 18.6106 28.6009 18.5814 28.6051C18.4585 28.623 18.3329 28.6464 18.2068 28.6526C18.1359 28.656 18.0769 28.6591 18.0066 28.6691L17.6141 28.6986C17.4742 28.6976 17.354 28.7098 17.2033 28.7098C16.563 28.7098 16.0685 28.6979 15.4448 28.6091C14.8766 28.5283 14.4824 28.4453 13.9435 28.3082C13.8552 28.2858 13.7458 28.2592 13.6574 28.2293C13.3908 28.1389 13.1053 28.0608 12.8459 27.9571C12.7585 27.9222 12.6713 27.8893 12.5836 27.8545C12.4944 27.819 12.4164 27.7844 12.3262 27.7469L12.0742 27.6338C11.9553 27.5736 11.8263 27.5265 11.7102 27.4618L11.3518 27.2726C11.309 27.2504 11.2775 27.2317 11.2357 27.2063L10.4491 26.7267L9.8185 26.2737C9.74396 26.2181 9.68744 26.1698 9.61303 26.1142C9.58601 26.094 9.58656 26.0925 9.56358 26.0724C9.45172 25.9747 9.33007 25.888 9.22155 25.7871C9.15512 25.7253 9.09863 25.6741 9.02831 25.6153L8.84074 25.4379C8.83904 25.4363 8.83685 25.4337 8.83518 25.4321C8.83351 25.4304 8.8313 25.4278 8.82965 25.4262L8.81831 25.4147C8.8114 25.4081 8.80289 25.4011 8.79426 25.3931L8.09121 24.6476C7.91665 24.4312 7.72678 24.2248 7.56487 23.999L7.19308 23.4697C7.14149 23.3923 7.09786 23.3286 7.04692 23.2509L6.83871 22.9116C6.76639 22.7755 6.68147 22.6478 6.61274 22.5102C6.59777 22.4802 6.59788 22.4767 6.58189 22.4498L6.45615 22.2106C6.36982 22.0632 6.24706 21.757 6.16952 21.5961C6.0407 21.3287 5.85894 20.8262 5.77267 20.5443C5.74447 20.4522 5.71964 20.3612 5.68727 20.2647C5.66949 20.2117 5.66023 20.1795 5.64638 20.1231C5.60968 19.9734 5.5642 19.8376 5.53368 19.6883L5.40627 19.0971C5.32999 18.7159 5.21252 17.818 5.21536 17.463C5.21596 17.3861 5.20417 17.3597 5.20336 17.2925C5.19285 16.4421 5.23484 15.587 5.40056 14.7627C5.44005 14.5663 5.47484 14.3641 5.52719 14.1707C5.57786 13.9835 5.6144 13.7858 5.67562 13.6006C5.75068 13.3735 5.80811 13.1475 5.89452 12.9298C6.01572 12.6244 6.12737 12.3212 6.26432 12.022L6.43581 11.6574C6.49733 11.5166 6.63882 11.2702 6.71722 11.129C6.73266 11.1012 6.73577 11.1009 6.75129 11.0718L7.3117 10.1836C7.35976 10.1113 7.40679 10.0472 7.45905 9.97737L8.01135 9.27498C8.0908 9.17662 8.19084 9.08242 8.26731 8.98341C8.30112 8.93962 8.31862 8.92648 8.35503 8.88866C8.38909 8.8533 8.40299 8.82831 8.44031 8.79141L8.79966 8.43216C8.86484 8.36698 8.92318 8.32019 8.98786 8.25538L10.0722 7.36637C10.2851 7.22238 10.4885 7.06662 10.7109 6.93293C10.8244 6.86475 10.9336 6.78568 11.0514 6.72592C11.2774 6.61143 11.5103 6.46821 11.7549 6.34574C11.8396 6.3033 11.9207 6.26869 12.002 6.22787C12.0797 6.18888 12.1592 6.15328 12.2465 6.11878L13.0205 5.80919C13.6414 5.5634 14.7018 5.32366 15.3306 5.2335C15.428 5.21952 15.551 5.20549 15.644 5.19325C16.3554 5.09975 17.3742 5.0953 18.0377 5.16535L18.3816 5.19787C18.4953 5.21287 18.6151 5.23553 18.7318 5.23553V0.0912591C18.7318 0.037349 18.5913 0.0487198 18.5412 0.0422777L18.196 0.0110336C17.9859 0.00503491 17.7731 0.00172137 17.5593 0H16.208H16.1767C15.8869 0 15.5249 0.0244901 15.2481 0.0636903L14.7975 0.115046C14.515 0.147125 14.2165 0.194227 13.938 0.247902C13.8616 0.262612 13.812 0.276514 13.7292 0.29005C13.3195 0.357001 12.9216 0.480026 12.5181 0.573136C12.2628 0.632002 11.8252 0.779493 11.5586 0.868352C11.3127 0.950299 11.0683 1.0517 10.8227 1.13618C10.6961 1.17971 10.5912 1.23315 10.4671 1.28247C10.2584 1.36543 9.6532 1.6312 9.44037 1.74998L8.15034 2.46747C8.04179 2.53205 7.94581 2.59258 7.84086 2.65987C7.81295 2.67777 7.79451 2.69099 7.76574 2.71024L7.38934 2.96117C7.12474 3.13709 6.19878 3.82983 5.97646 4.04628L5.25226 4.70227C5.12282 4.82465 4.87622 5.06368 4.77451 5.18267L4.73286 5.23225C4.71961 5.24709 4.71303 5.25316 4.69916 5.26699C4.65691 5.30898 4.6122 5.34873 4.57368 5.39247C4.54904 5.42045 4.54481 5.43276 4.5168 5.46103L4.27714 5.72325C3.90657 6.14027 3.54016 6.59526 3.22369 7.05374L2.62377 7.94804C2.60522 7.97746 2.59573 7.99509 2.57567 8.02542L2.34138 8.41849C2.21854 8.63189 2.09241 8.84333 1.98493 9.06581L1.5386 9.98822C1.44447 10.1903 1.24049 10.6629 1.17013 10.8744C1.15662 10.915 1.15202 10.9292 1.13559 10.9654C1.08299 11.081 1.04188 11.2125 1.00193 11.3336L0.759501 12.0949C0.748182 12.1332 0.739653 12.151 0.728308 12.1892C0.527925 12.8649 0.304304 13.8685 0.221261 14.5566C0.165056 15.0223 0.09375 15.4697 0.09375 15.9347Z" fill="black"></path>
    </g>
  </g>
</svg>
