<?xml version="1.0" encoding="UTF-8"?>
<svg xmlns="http://www.w3.org/2000/svg" width="48" height="40" viewBox="0 0 48 40" fill="none">
  <g id="Group 1520">
    <path id="Vector" d="M38.3018 24.6658C37.2058 26.2147 35.6386 27.3803 33.8263 27.9943C32.0141 28.6083 30.0506 28.6389 28.2196 28.0817C26.3885 27.5245 24.7846 26.4082 23.6395 24.8942C22.4944 23.3802 21.8674 21.5468 21.849 19.6588C21.8306 17.7708 22.4218 15.9259 23.5372 14.3905C24.6526 12.8552 26.2345 11.7088 28.0543 11.1171C29.8742 10.5253 31.8379 10.5188 33.6618 11.0984C35.4856 11.678 37.0753 12.8138 38.2012 14.3417M45.0928 29.3297C42.9931 32.2972 39.9904 34.5304 36.5184 35.7068C33.0464 36.8832 29.2846 36.9418 25.7766 35.8742C22.2685 34.8067 19.1956 32.6682 17.0017 29.7676C14.8079 26.867 13.6066 23.3544 13.5713 19.7372C13.536 16.12 14.6687 12.5854 16.8056 9.64379C18.9425 6.70222 21.9732 4.50596 25.4598 3.37222C28.9464 2.23848 32.7086 2.22593 36.2029 3.33639C39.6972 4.44685 42.7429 6.62284 44.9 9.55009" stroke="black" stroke-width="5"></path>
    <path id="Vector_2" d="M11.9425 17.6094H3.90853V4.85079H13.4366L16.368 1H0V37.8261L3.90853 35.2557V21.4602H11.9425V17.6094Z" fill="black"></path>
  </g>
</svg>
