<?xml version="1.0" encoding="UTF-8"?>
<svg xmlns="http://www.w3.org/2000/svg" width="57" height="47" viewBox="0 0 57 47" fill="none">
  <g id="ISO_black 1" clip-path="url(#clip0_2348_50086)">
    <g id="Layer_x0020_1">
      <g id="_2555487424464">
        <g id="Group">
          <g id="Group_2">
            <path id="Vector" fill-rule="evenodd" clip-rule="evenodd" d="M56.0794 18.5249C55.5406 17.0807 54.4237 15.7859 53.0716 14.8597C49.1625 12.3399 43.2156 12.1606 39.1889 14.4414C36.9943 15.5768 35.5443 17.8277 35.0936 20.1483C34.2805 23.9529 34.496 28.4846 37.3764 31.343C40.7467 34.3409 45.6453 35.0082 50.0051 33.7732C50.2108 33.7334 50.8673 33.5641 51.3179 33.325L51.4453 33.2653C52.8071 32.6976 54.0906 31.7614 55.0605 30.5064C57.2845 27.1998 57.4314 22.2498 56.0794 18.5249ZM48.9862 27.0803C48.8294 27.7974 48.3494 28.5444 47.595 28.8232C46.3997 29.3611 44.7733 29.2117 43.6663 28.5842C42.7257 27.9169 42.6082 26.8114 42.4906 25.7556C42.4024 23.684 42.2555 21.4929 42.8237 19.6005C43.2744 18.4352 44.499 18.1265 45.6159 18.0368C46.7916 18.0368 47.9281 18.2261 48.6531 19.1822C49.1037 19.8694 49.0744 20.7758 49.1625 21.5825C49.1331 23.2956 49.2801 25.3373 48.9862 27.0803ZM13.3633 28.9427C12.3738 28.883 11.2569 28.9726 10.2967 28.8531L10.3261 18.3057L10.3849 18.2161L13.3633 18.1962C13.3927 16.4831 13.4221 14.6505 13.3339 13.0868L1.99845 13.057L0.136972 13.0868C0.10758 14.6804 0.10758 16.5329 0.136972 18.1564C1.15589 18.1962 2.11602 18.1564 3.11534 18.2559V28.4647L3.08595 28.883L0.10758 28.9427C0.0781883 29.7594 0.0585938 30.5961 0.0585938 31.4227C0.0585938 32.2394 0.0781883 33.086 0.10758 33.9027L13.3633 33.8927V28.9427ZM46.7328 36.1436C45.469 37.9762 43.872 39.7491 42.1379 41.1335C42.0693 41.2231 41.893 41.1833 41.8342 41.1036C41.0798 40.6255 40.2666 40.2271 39.5416 39.7491C40.5115 38.5838 41.4423 37.4085 42.1575 36.1138H41.2267C40.4821 37.2292 39.6984 38.4045 38.7088 39.3905C37.3764 38.8527 36.1811 38.3647 34.8291 38.0061L34.6724 37.8866C34.8879 37.289 35.2798 36.7113 35.3974 36.1138H34.5842L33.771 37.7372C31.9977 37.3488 30.048 37.1297 28.2454 37.0101C28.1474 36.7412 28.2747 36.3528 28.1474 36.1138H27.3734C27.3048 36.4723 27.4616 36.7512 27.2754 37.05C25.4139 37.1297 23.6112 37.3488 21.8673 37.7073L21.0542 36.1138C20.7602 36.1138 20.4271 36.054 20.2214 36.1436L20.966 37.9165L20.8778 38.0061C19.5356 38.3945 18.2031 38.8826 16.9099 39.4204L16.7923 39.3606C15.9498 38.4244 15.1366 37.4085 14.4704 36.3926C14.3234 35.8747 13.7258 36.1735 13.3927 36.1138C14.1079 37.4384 15.0778 38.6037 16.0379 39.8088C15.2248 40.2969 14.4116 40.8247 13.569 41.2231C11.7369 39.7989 10.1302 38.0858 8.82715 36.1436C8.46465 36.0938 8.21972 36.1138 7.85722 36.1436C10.0224 39.5698 13.3927 42.5677 16.9099 44.3405C16.9099 44.3405 16.9099 44.3206 16.9393 44.3206C16.9687 44.3206 17.0275 44.3704 16.9687 44.4003C19.3396 45.5755 21.8673 46.4121 24.542 46.7806C33.771 48.0057 42.5788 44.0118 47.6929 36.1436C47.5264 36.1337 47.3598 36.1237 47.2031 36.1237C47.0463 36.1237 46.8896 36.1337 46.7328 36.1436ZM34.1923 38.8527L34.2805 38.7929C35.5835 39.0917 36.8082 39.51 37.9544 40.0777C36.9943 41.1833 35.7599 42.1494 34.6136 42.9561C33.9278 43.3744 33.2322 43.8326 32.5072 44.1911L31.2237 43.6234L31.3119 43.4142C32.3896 41.9402 33.3497 40.4363 34.1923 38.8527ZM28.2747 37.9464C29.9893 37.9762 31.7038 38.1555 33.2909 38.5539L33.3203 38.6435C32.4876 40.257 31.4295 41.8207 30.2832 43.2947C29.7737 43.3545 29.2937 43.1453 28.7842 43.1155L28.2747 43.0557C28.216 41.2829 28.1768 39.7192 28.2747 37.9464ZM22.4748 38.4842C24.0325 38.1854 25.6589 37.9464 27.344 37.9464L27.3734 43.0258C26.7366 43.1752 26.0508 43.1752 25.4433 43.3246C24.2089 41.8506 23.19 40.257 22.318 38.6037L22.4748 38.4842ZM17.6349 40.1076C18.8008 39.5399 20.0352 39.1116 21.2991 38.7929L21.4167 38.8228C22.2886 40.4761 23.3761 42.0298 24.4538 43.5935C24.0325 43.8326 23.5231 43.982 23.1018 44.221C21.0737 43.2051 19.2221 41.8406 17.6349 40.1973V40.1076ZM21.5048 45.2468C18.9869 44.5795 16.6356 43.4441 14.4704 41.8804V41.7908C15.1954 41.3426 15.9204 40.8646 16.6944 40.5259C18.4089 42.249 20.1822 43.5338 22.1123 44.7688C21.9555 44.948 21.7204 45.1273 21.5048 45.2468ZM32.6639 45.6353C29.4798 46.3325 25.9234 46.3524 22.7393 45.5755C22.6805 45.4261 22.896 45.3962 22.9842 45.3066C25.7764 43.474 30.1362 43.474 32.8697 45.456C32.9578 45.6353 32.7227 45.5755 32.6639 45.6353ZM35.5443 44.7986L34.1335 45.2468C33.8984 45.1273 33.6828 44.948 33.4673 44.7588L33.5359 44.6692C35.4561 43.5338 37.2001 42.1494 38.8558 40.496C39.669 40.8247 40.4528 41.2829 41.168 41.7908C39.4828 43.1453 37.5332 44.0417 35.5443 44.7986ZM8.75857 10.7762C9.50317 9.73041 10.3163 8.73444 11.1981 7.79823C11.9721 7.05125 12.6971 6.33414 13.5396 5.78636C14.3234 6.29431 15.1954 6.72257 15.9498 7.20064C15.019 8.36593 14.0491 9.54118 13.3633 10.7961C13.569 10.8957 13.9609 10.8658 14.2646 10.7961C15.019 9.69058 15.8224 8.58504 16.7923 7.58907C18.0758 8.06714 19.3396 8.57508 20.6721 8.94359L20.7896 9.06311L20.0352 10.7961C20.3683 10.8658 20.5839 10.8359 20.9072 10.7961C21.1815 10.2981 21.3873 9.72046 21.691 9.21251C23.4349 9.60094 25.267 9.81009 27.1285 9.86985C27.3734 10.079 27.1872 10.5272 27.2852 10.7961H28.0886C28.1768 10.5073 28.0592 10.1686 28.1768 9.89973C29.9305 9.81009 31.7626 9.63082 33.4477 9.21251L33.5947 9.24239L34.4078 10.7961C34.6724 10.7961 35.0349 10.8658 35.2504 10.7363L34.496 9.00335L34.5548 8.94359C35.9362 8.57508 37.2295 8.03726 38.5521 7.49943C39.4926 8.48545 40.3548 9.6607 41.1386 10.7961C41.4717 10.7961 41.8048 10.8359 42.0399 10.7363C41.6774 10.069 41.2365 9.43162 40.7467 8.844C40.3548 8.27629 39.9041 7.72851 39.424 7.23052V7.07116L41.5305 5.84612L41.8342 5.7266C43.6565 7.13092 45.2632 8.82408 46.576 10.7363C46.9385 10.7363 47.2423 10.8658 47.546 10.7164C43.5095 4.59119 36.867 0.657094 29.6855 0.0893891L29.6562 0.149148L29.5974 0.0893891C28.7842 -0.0002485 27.7849 -0.0400875 26.9227 0.0495502C26.5896 0.0296307 26.1977 0.0495502 25.8058 0.0893891C18.595 0.657094 11.9525 4.41192 7.79844 10.8061C8.10216 10.7762 8.46465 10.8957 8.75857 10.7762ZM21.2403 8.13686L21.1227 8.15678C19.8883 7.83806 18.6832 7.43968 17.5369 6.93173L17.5957 6.75245C19.2515 5.1589 20.9954 3.83425 22.9156 2.81836C23.3761 2.99763 23.8268 3.14703 24.2775 3.35618L24.1893 3.59522C23.043 5.03938 22.1416 6.60306 21.2403 8.13686ZM27.2166 8.94359C26.3839 9.06311 25.6295 8.91372 24.7869 8.85396C23.9737 8.72448 22.9548 8.6448 22.1416 8.36593C23.0136 6.72257 24.0325 5.12902 25.267 3.66493L27.1872 3.92389C27.2852 5.48757 27.2166 7.29028 27.2166 8.94359ZM28.1474 8.97348C28.0886 7.37992 28.1278 5.60708 28.1474 3.95377C28.7548 3.87409 29.4112 3.77449 30.0187 3.68485C31.1845 5.18877 32.3308 6.72257 33.1146 8.36593C31.498 8.76432 29.8227 8.97348 28.1474 8.97348ZM37.7487 6.87197C36.573 7.37992 35.368 7.85798 34.0747 8.13686C33.144 6.5433 32.1251 4.94974 30.9788 3.41594C31.4001 3.17691 31.9095 2.99763 32.3602 2.7586C34.3197 3.75457 36.2105 5.1589 37.7977 6.77237L37.7487 6.87197ZM33.8984 1.73275C36.4163 2.40005 38.797 3.53546 40.9622 5.09914L40.8936 5.21865L38.8264 6.38394H38.6697C37.0825 4.77047 35.221 3.35618 33.3203 2.25065C33.3791 2.0415 33.6828 1.88214 33.8984 1.73275ZM32.6933 1.43395V1.49371C30.0774 3.41594 25.8352 3.59522 23.0724 1.82238C22.9156 1.70287 22.6217 1.64311 22.5923 1.43395C25.7764 0.686973 29.5288 0.627215 32.6933 1.43395ZM14.3528 5.1589C16.2535 3.75457 18.3501 2.69884 20.5741 1.98174C20.6721 1.88214 20.7308 1.7925 20.8484 1.7925V1.85226C21.0835 1.91202 21.2697 1.64311 21.4754 1.82238C21.6616 1.98174 21.8673 2.10126 22.0241 2.25065C20.1528 3.41594 18.3207 4.80034 16.6356 6.47358C15.8224 6.18475 15.0778 5.7266 14.3528 5.21865V5.1589ZM27.2558 29.1818C24.4244 29.9586 21.3579 29.3611 19.3102 27.1998C19.0751 26.901 18.9281 26.5424 18.6832 26.2437L14.6271 26.2735C14.5586 28.7037 14.5292 31.4924 14.6271 33.8927L19.1339 33.8629L19.1927 32.4287C19.7021 32.6677 20.2214 32.9665 20.7308 33.2354C23.8562 34.56 27.8731 34.8588 30.9788 33.2354C33.2322 31.9805 34.4372 29.5403 34.1041 26.9309C33.771 24.3812 31.3707 22.0606 28.9312 21.4331L21.6616 19.3017L21.1227 19.0328C20.8778 18.8237 20.7308 18.5547 20.7896 18.2161C21.3579 17.2301 22.6805 17.5289 23.67 17.5588C25.7764 17.8576 27.9416 18.5846 29.1761 20.5367C30.4987 20.5367 32.0271 20.5566 33.4673 20.5068C33.5359 18.0368 33.4477 15.8756 33.4085 13.3856C32.0565 13.3558 30.4008 13.3558 29.0585 13.4155C28.9899 13.7741 29.1075 14.282 28.9606 14.6505L27.5791 13.8936C24.2677 12.4793 19.6433 12.3399 16.6356 14.531C14.6859 15.9652 14.0785 18.5547 14.5977 20.8355C14.9798 22.9968 17.0275 24.5804 18.9771 25.3373C21.6518 26.2935 24.4538 26.9906 27.1579 27.9169C27.4322 28.0364 27.7849 28.3153 27.7359 28.644C27.7359 28.9129 27.4616 29.0623 27.2558 29.1818Z" fill="#17191F"></path>
          </g>
        </g>
      </g>
    </g>
  </g>
  <defs>
    <clipPath id="clip0_2348_50086">
      <rect width="57" height="47" fill="white"></rect>
    </clipPath>
  </defs>
</svg>
