<?xml version="1.0" encoding="UTF-8"?>
<!-- Creator: CorelDRAW -->
<svg xmlns="http://www.w3.org/2000/svg" xmlns:xlink="http://www.w3.org/1999/xlink" xmlns:xodm="http://www.corel.com/coreldraw/odm/2003" xml:space="preserve" width="41px" height="15px" version="1.1" style="shape-rendering:geometricPrecision; text-rendering:geometricPrecision; image-rendering:optimizeQuality; fill-rule:evenodd; clip-rule:evenodd" viewBox="0 0 41 14.57">
 <defs>
  <style type="text/css">
   <![CDATA[
    .fil1 {fill:black;fill-rule:nonzero}
    .fil2 {fill:#F0B800;fill-rule:nonzero}
    .fil0 {fill:white;fill-rule:nonzero}
   ]]>
  </style>
 </defs>
 <g id="Layer_x0020_1">
  <metadata id="CorelCorpID_0Corel-Layer"></metadata>
  <g id="g48">
   <g id="g46">
    <path id="path950" class="fil0" d="M33.17 12.66l0.34 0.35 0.99 0.94 1.34 -0.16 1.04 -0.31 0.31 -0.52 0.75 -0.48 0.1 -1 0.33 0.08 0.43 -2.23 -0.46 -1.61 -0.88 -1.54 -0.59 -2.3 0.21 -2.12 -1.92 -0.38 -1.47 0.35 -0.3 0.72c0,0 -0.1,0.65 -0.1,0.68 -0.01,0.03 0.04,0.68 0.04,0.68l-0.12 1.06 -0.2 1.34 -0.6 1.52c0,0 -0.29,1.5 -0.4,1.5 -0.1,0 0.06,0.73 0.06,0.73l0.63 1.5 0.47 1.2 0 0 0 0z"></path>
    <path id="path30" class="fil1" d="M34.93 0.03c-1.06,0.13 -1.84,1.07 -1.76,2.14 -0.03,2 0.2,2.71 -0.7,3.85 -0.89,1.14 -1.43,1.98 -1.65,2.8 -0.13,0.51 -0.21,1.02 -0.21,1.55 0,0 -0.02,0.21 0.21,0.01 0.22,-0.2 0.85,-0.11 1.16,0.45 0.31,0.56 0.89,1.43 0.89,1.43l0.3 0.4 0.4 -0.11c0,0 0.4,-0.27 0,-0.85 -0.23,-0.33 -0.51,-0.63 -0.83,-0.87 0,0 -0.95,-0.49 -1.12,-1.05 -0.15,-0.96 0.11,-1.95 0.72,-2.71 0.45,-0.53 -0.1,0.43 -0.27,0.78 -0.38,0.79 -0.42,1.85 -0.41,2.37 0.01,0.22 0.56,0.37 0.7,0.47 0.09,0.07 -0.34,-0.8 -0.29,-0.73 0.17,-2.01 1.07,-2.45 1.63,-5.21 -0.42,-0.24 -0.36,-0.86 0.1,-1.01 -0.23,-0.29 -0.32,-0.67 -0.23,-1.03 0.13,-0.43 0.29,-0.48 0.46,-0.5 0.18,-0.01 0.6,0.18 0.55,1.02 0.2,-0.03 0.4,-0.03 0.6,0 0,0 -0.16,-0.79 0.42,-1.06 0.33,-0.15 0.72,-0.04 0.9,0.27 0.21,0.42 0.18,0.92 -0.09,1.3 0.3,0.14 0.4,0.52 0.2,0.78l0.49 1.5c0,0 0.65,1.28 0.96,1.99 0.19,0.42 0.32,0.87 0.38,1.32l0.36 0c0,0 0.57,-1.37 -0.74,-2.7 -0.08,-0.1 -0.02,-0.02 0,0 0.03,0.02 1.35,1.23 1.03,2.81 0.25,0.18 1.05,0.32 0.9,1.17 0.3,0.04 0.38,0 0.38,0 0.2,-0.87 0.13,-1.78 -0.2,-2.6 -0.37,-0.89 -0.9,-1.7 -1.57,-2.39 -0.5,-0.54 -0.77,-1.26 -0.76,-1.99 0.06,-0.94 -0.07,-1.88 -0.4,-2.75 -0.27,-0.53 -0.82,-0.86 -1.41,-0.85 -0.37,-0.04 -0.73,-0.04 -1.1,0l0 0 0 0 0 0z"></path>
    <path id="path38" class="fil1" d="M33.51 13.01c0,0 1.24,1.01 2.4,0.53 0.44,-0.16 1.62,-0.83 2.03,-1.06 0,0 -0.32,1.53 -0.16,1.74 0.15,0.22 -1.68,-0.21 -2.51,-0.18 -0.83,0.03 -1.4,0.1 -2.19,0.15 0.25,-0.33 -2.08,-2.9 -2.45,-3.73 -0.15,-0.34 1.11,-0.16 1.11,-0.16l1.77 2.71 0 0 0 0z"></path>
    <path id="path32" class="fil2" d="M31.18 10.73c-0.52,0.09 -0.46,0.38 -0.67,0.57 -0.22,0.19 -0.42,0.17 -0.65,0.31 -0.24,0.14 -0.36,0.35 -0.26,0.83 0.03,0.1 0.04,0.21 0.04,0.31 0,0.2 -0.04,0.4 -0.13,0.58 -0.07,0.22 0.02,0.56 0.49,0.58 0.43,0 0.86,0.06 1.28,0.18 0.72,0.16 1.17,0.62 1.65,0.22 0.25,-0.17 0.4,-0.45 0.4,-0.76 0,-0.02 0,-0.04 0,-0.06 -0.08,-0.34 -0.26,-0.65 -0.51,-0.88 -0.32,-0.31 -0.58,-0.68 -0.76,-1.09 -0.15,-0.29 -0.37,-0.87 -0.88,-0.79l0 0 0 0 0 0z"></path>
    <path id="path956" class="fil1" d="M38.43 9.14c0.12,0 0.34,-1.53 0.34,-1.27 0.33,0.56 0.28,1.25 0.28,1.25l-0.04 4.13 -1 -2.12c0,0 0.51,-1.48 0.42,-1.99l0 0 0 0z"></path>
    <path id="path34" class="fil2" d="M40.99 12.7c-0.06,-0.49 -0.21,-0.38 -0.39,-0.59 -0.17,-0.21 -0.06,-0.47 -0.18,-0.7 -0.13,-0.22 -0.14,-0.44 -0.6,-0.35 -0.45,0.08 -0.82,0.76 -1.5,0.3 -0.24,-0.18 -0.39,-0.67 -0.42,-0.23 0,0.06 0,0.12 0,0.18 -0.02,0.45 -0.08,0.89 -0.19,1.33 -0.18,0.67 -0.48,1.06 -0.13,1.53 0.16,0.24 0.42,0.39 0.7,0.4 0.03,0 0.05,0 0.07,0 0.32,-0.06 0.61,-0.22 0.84,-0.45 0.3,-0.3 0.66,-0.53 1.05,-0.68 0.28,-0.13 0.82,-0.25 0.75,-0.74l0 0 0 0z"></path>
    <path id="path36" class="fil1" d="M38.82 9.62c0,0 -0.9,-0.18 -0.77,0.59 0.12,0.77 0.43,0.92 0.43,0.92 0.1,0.08 0.24,0.12 0.37,0.12 0.13,0 0.27,-0.04 0.37,-0.12 0.24,-0.14 0.44,-0.33 0.6,-0.55 0,0 0.23,-0.39 -0.31,-0.68 -0.21,-0.13 -0.44,-0.23 -0.69,-0.28l0 0 0 0z"></path>
    <path id="path40" class="fil1" d="M34.16 2.69c0.16,0 0.28,0.21 0.28,0.47 0,0.06 0,0.12 -0.02,0.18 -0.1,0.11 -0.23,0.2 -0.38,0.25 -0.1,-0.1 -0.16,-0.24 -0.16,-0.39 0,-0.01 0,-0.03 0,-0.04 0,-0.26 0.13,-0.47 0.28,-0.47l0 0 0 0z"></path>
    <path id="path42" class="fil1" d="M35.89 2.64c0.23,0.03 0.41,0.22 0.41,0.46 0,0.01 0,0.03 0,0.04 -0.01,0.18 -0.08,0.35 -0.21,0.48 -0.06,0.05 -0.37,-0.09 -0.52,-0.17 -0.04,-0.08 -0.06,-0.16 -0.06,-0.25 0,-0.02 0,-0.04 0,-0.06 0,-0.27 0.15,-0.5 0.38,-0.5l0 0 0 0z"></path>
    <path id="path44" class="fil2" d="M34.44 3.63c-0.2,0.12 -0.39,0.26 -0.57,0.41 -0.08,0.06 -0.13,0.15 -0.13,0.25 0,0.09 0.05,0.18 0.13,0.24 0.2,0.2 0.43,0.39 0.67,0.55 0.11,0.09 0.25,0.15 0.4,0.15 0.12,0 0.23,-0.04 0.33,-0.1 0.32,-0.14 0.87,-0.45 0.87,-0.45 0,0 0.61,-0.49 0,-0.76 -0.6,-0.27 -0.48,-0.25 -0.87,-0.4 -0.11,-0.05 -0.22,-0.08 -0.34,-0.08 -0.18,0 -0.35,0.07 -0.49,0.19l0 0 0 0z"></path>
   </g>
   <g id="g28">
    <path id="path12" class="fil1" d="M0 4.24l0 -0.55 3.09 0 0 0.55 -0.57 0c0,0 0,0 0,0 -0.13,0 -0.23,0.1 -0.23,0.22 0,0 0,0 0,0l0 5.83 1.91 0c0,0 0.32,0.19 0.41,-1.49l0.79 0 0 2.05 -5.39 0 0 -0.49 0.59 0c0,0 0.25,-0.08 0.25,-0.25l0 -5.67c0,0 -0.03,-0.18 -0.31,-0.18l-0.54 -0.02 0 0 0 0z"></path>
    <path id="path14" class="fil1" d="M5.85 6.54l0 -0.43 1.47 -0.55 0.57 0 0 4.62c0,0 0.01,0.24 0.33,0.24l0.4 0 0 0.44 -2.78 0 0 -0.46 0.42 0c0,0 0.27,-0.03 0.3,-0.2l0 -3.66 -0.71 0 0 0z"></path>
    <path id="path16" class="fil1" d="M11.74 10.86l-2.63 0 0 -0.46 0.41 0c0,0 0.28,-0.03 0.29,-0.22l0 -3.67 -0.73 0 0 -0.45 1.5 -0.52 0.53 0 0 0.66c0,0 1.17,-0.63 1.86,-0.63 0.03,-0.01 0.07,-0.01 0.11,-0.01 0.7,0 1.28,0.57 1.28,1.28 0,0.04 0,0.08 -0.01,0.12l0 3.17c0.03,0.15 0.16,0.26 0.31,0.26 0.01,0 0.02,0 0.03,0l0.42 0 0 0.47 -2.61 0 0 -0.49 0.36 0c0.11,-0.01 0.21,-0.09 0.24,-0.2l0 -2.77c-0.03,-0.52 -0.45,-0.92 -0.97,-0.92 -0.01,0 -0.02,0 -0.03,0 -0.33,0.04 -0.66,0.11 -0.98,0.2l0 3.5c0.04,0.12 0.15,0.2 0.27,0.2l0.36 0 -0.01 0.48 0 0 0 0z"></path>
    <path id="path18" class="fil1" d="M16.15 6.5l-0.72 0 0 -0.43 1.46 -0.51 0.59 0 0 3.49c0,0 -0.04,1.11 1,1.02 0.32,-0.02 0.63,-0.08 0.93,-0.17l0 -3.39 -0.7 0 0 -0.43 1.43 -0.53 0.59 0 0 4.6c0,0 -0.01,0.21 0.27,0.23l0.42 0 0 0.51 -2.01 0 0 -0.58c0,0 -1.02,0.67 -1.84,0.66 0,0 -1.38,0.08 -1.42,-1.49l0 -2.98 0 0 0 0 0 0z"></path>
    <path id="path20" class="fil1" d="M21.76 6.12l0 -0.49 2.56 0 0 0.48c0,0 -0.56,-0.02 -0.4,0.26l0.83 1.21 0.83 -1.21c0,0 0.2,-0.25 -0.45,-0.23l0 -0.49 1.96 0 0 0.47c-0.25,0.01 -0.49,0.09 -0.69,0.24l-1.26 1.69 1.57 2.26c0.17,0.08 0.35,0.12 0.53,0.12 0.01,0 0.03,0 0.04,0l0 0.44 -2.52 0 0 -0.39c0,0 0.57,0 0.39,-0.31l-0.89 -1.33 -0.93 1.35c0,0 -0.24,0.22 0.47,0.21l0 0.45 -2.06 0 0 -0.44c0.02,0 0.05,0.01 0.07,0.01 0.23,0 0.45,-0.09 0.62,-0.24l1.39 -1.82 -1.37 -2c0,0 -0.07,-0.23 -0.69,-0.24l0 0 0 0 0 0z"></path>
    <polygon id="path22" class="fil1" points="27.19,5.36 27.08,5.36 27.08,5.09 27.63,5.09 27.63,5.36 27.53,5.36 27.53,5.2 27.41,5.2 27.41,5.59 27.52,5.59 27.52,5.7 27.19,5.7 27.19,5.59 27.3,5.59 27.3,5.2 27.18,5.2 "></polygon>
    <polygon id="path24" class="fil1" points="27.69,5.7 27.69,5.59 27.75,5.59 27.75,5.2 27.69,5.2 27.69,5.08 27.86,5.08 27.86,5.2 27.92,5.2 27.92,5.32 27.97,5.32 27.97,5.36 28.03,5.36 28.03,5.31 28.09,5.31 28.09,5.2 28.14,5.2 28.14,5.08 28.31,5.08 28.31,5.2 28.25,5.2 28.25,5.59 28.31,5.59 28.31,5.7 28.03,5.7 28.03,5.59 28.14,5.59 28.14,5.42 28.09,5.42 28.09,5.47 28.03,5.47 28.03,5.53 27.97,5.53 27.97,5.48 27.92,5.48 27.92,5.42 27.86,5.42 27.86,5.58 27.97,5.58 27.97,5.7 "></polygon>
    <circle id="ellipse26" class="fil1" cx="7.29" cy="3.97" r="0.79"></circle>
   </g>
  </g>
 </g>
</svg>
