<?xml version="1.0" encoding="UTF-8"?>
<!DOCTYPE svg PUBLIC "-//W3C//DTD SVG 1.1//EN" "http://www.w3.org/Graphics/SVG/1.1/DTD/svg11.dtd">
<svg xmlns="http://www.w3.org/2000/svg" version="1.1" width="1024px" height="1024px" style="shape-rendering:geometricPrecision; text-rendering:geometricPrecision; image-rendering:optimizeQuality; fill-rule:evenodd; clip-rule:evenodd" xmlns:xlink="http://www.w3.org/1999/xlink">
<g><path style="opacity:0.341" fill="#e4e2e2" d="M 1011.5,-0.5 C 1012.83,-0.5 1014.17,-0.5 1015.5,-0.5C 1014.17,0.833333 1012.83,0.833333 1011.5,-0.5 Z"/></g>
<g><path style="opacity:1" fill="#101011" d="M 677.5,207.5 C 678.514,208.674 679.847,209.34 681.5,209.5C 695.034,218.026 708.034,227.359 720.5,237.5C 737.637,253.598 752.97,270.598 766.5,288.5C 765.167,288.833 765.167,289.167 766.5,289.5C 802.734,339.41 821.067,396.577 821.5,461C 821.751,493.578 815.418,524.745 802.5,554.5C 801.175,553.047 800.342,553.381 800,555.5C 799.51,554.207 799.343,552.873 799.5,551.5C 795.5,551.5 791.5,551.5 787.5,551.5C 788.096,549.602 788.096,547.935 787.5,546.5C 818.338,452.525 803.505,366.525 743,288.5C 712.273,251.049 674.44,223.215 629.5,205C 523.669,165.215 425.669,179.048 335.5,246.5C 334.458,245.209 333.292,245.209 332,246.5C 331.798,244.744 331.298,243.078 330.5,241.5C 329.158,243.005 327.492,243.672 325.5,243.5C 325.892,246.722 325.392,249.722 324,252.5C 322.274,251.424 320.441,251.257 318.5,252C 319.821,253.545 319.488,254.711 317.5,255.5C 315.889,254.68 315.222,253.346 315.5,251.5C 314.167,251.5 312.833,251.5 311.5,251.5C 311.167,248.5 312.5,247.167 315.5,247.5C 315.167,244.5 316.5,243.167 319.5,243.5C 319.5,242.167 319.5,240.833 319.5,239.5C 323.984,239.079 324.317,238.079 320.5,236.5C 353.352,208.584 390.685,188.417 432.5,176C 517.544,152.508 599.211,163.008 677.5,207.5 Z"/></g>
<g><path style="opacity:0.043" fill="#e0e1e0" d="M 677.5,206.5 C 678.833,207.167 678.833,207.167 677.5,206.5 Z"/></g>
<g><path style="opacity:0.451" fill="#e6e7e6" d="M 681.5,208.5 C 682.833,209.167 682.833,209.167 681.5,208.5 Z"/></g>
<g><path style="opacity:0.643" fill="#ebeceb" d="M 720.5,236.5 C 721.833,237.167 721.833,237.167 720.5,236.5 Z"/></g>
<g><path style="opacity:0.043" fill="#dfdfe1" d="M 766.5,288.5 C 767.833,289.167 767.833,289.167 766.5,288.5 Z"/></g>
<g><path style="opacity:1" fill="#0d0e0e" d="M 675.5,268.5 C 679.719,269.204 683.052,271.371 685.5,275C 677.197,284.304 668.531,293.304 659.5,302C 641.167,318.333 622.833,334.667 604.5,351C 602.598,352.301 600.598,352.968 598.5,353C 596.337,351.002 594.67,348.668 593.5,346C 594.317,344.51 595.15,343.01 596,341.5C 621.744,316.252 648.244,291.919 675.5,268.5 Z"/></g>
<g><path style="opacity:1" fill="#111111" d="M 320.5,236.5 C 324.317,238.079 323.984,239.079 319.5,239.5C 319.5,240.833 319.5,242.167 319.5,243.5C 316.5,243.167 315.167,244.5 315.5,247.5C 312.5,247.167 311.167,248.5 311.5,251.5C 312.833,251.5 314.167,251.5 315.5,251.5C 315.222,253.346 315.889,254.68 317.5,255.5C 319.488,254.711 319.821,253.545 318.5,252C 320.441,251.257 322.274,251.424 324,252.5C 325.392,249.722 325.892,246.722 325.5,243.5C 327.492,243.672 329.158,243.005 330.5,241.5C 331.298,243.078 331.798,244.744 332,246.5C 333.292,245.209 334.458,245.209 335.5,246.5C 248.288,323.308 217.455,418.641 243,532.5C 256.947,577.247 281.113,615.413 315.5,647C 402.884,725.695 502.217,748.028 613.5,714C 696.252,683.746 754.252,627.912 787.5,546.5C 788.096,547.935 788.096,549.602 787.5,551.5C 791.5,551.5 795.5,551.5 799.5,551.5C 799.343,552.873 799.51,554.207 800,555.5C 800.342,553.381 801.175,553.047 802.5,554.5C 802.5,555.167 802.5,555.833 802.5,556.5C 801.167,556.833 801.167,557.167 802.5,557.5C 801.449,558.222 800.782,559.222 800.5,560.5C 789.56,585.722 775.56,609.055 758.5,630.5C 757.599,631.29 756.932,632.29 756.5,633.5C 755.833,633.5 755.5,633.833 755.5,634.5C 754.167,634.833 754.167,635.167 755.5,635.5C 752.48,637.523 750.146,640.19 748.5,643.5C 674.572,723.21 583.239,757.044 474.5,745C 421.902,737.036 374.569,717.036 332.5,685C 245.533,619.501 207.367,532.335 218,423.5C 228.579,351.833 260.079,291.333 312.5,242C 315.065,239.92 317.732,238.087 320.5,236.5 Z"/></g>
<g><path style="opacity:1" fill="#0e0e0f" d="M 447.5,394.5 C 449.324,413.14 450.157,432.14 450,451.5C 455.36,470.1 467.527,477.267 486.5,473C 493.333,470.167 498.167,465.333 501,458.5C 502.058,451.719 502.558,444.886 502.5,438C 501.869,423.506 501.536,409.006 501.5,394.5C 508.167,394.5 514.833,394.5 521.5,394.5C 521.667,415.503 521.5,436.503 521,457.5C 513.016,487.76 493.516,499.594 462.5,493C 441.226,484.595 430.559,469.095 430.5,446.5C 429.723,429.532 429.056,412.532 428.5,395.5C 435.022,395.823 441.355,395.49 447.5,394.5 Z"/></g>
<g><path style="opacity:1" fill="#0e0e0e" d="M 636.5,417.5 C 635.833,417.5 635.5,417.833 635.5,418.5C 634.833,418.5 634.5,418.833 634.5,419.5C 633.833,419.5 633.5,419.833 633.5,420.5C 632.833,420.5 632.5,420.833 632.5,421.5C 631.094,421.973 630.427,422.973 630.5,424.5C 629.833,424.5 629.5,424.833 629.5,425.5C 624.157,430.844 619.157,436.511 614.5,442.5C 613.167,443.167 613.167,443.833 614.5,444.5C 624.871,455.371 634.704,466.704 644,478.5C 647.035,481.87 650.368,484.87 654,487.5C 655.128,489.345 655.628,491.345 655.5,493.5C 648.245,493.187 641.079,493.52 634,494.5C 623.674,482.508 613.007,470.841 602,459.5C 591.202,470.967 580.368,482.467 569.5,494C 568.584,494.374 567.75,494.874 567,495.5C 561.661,493.927 556.161,493.094 550.5,493C 549.328,491.132 549.495,489.298 551,487.5C 564.534,473.634 577.701,459.468 590.5,445C 578.667,431.833 566.833,418.667 555,405.5C 553.007,403.182 551.841,400.516 551.5,397.5C 558.138,397.739 564.638,397.073 571,395.5C 582.076,406.572 592.41,418.239 602,430.5C 611.987,418.846 622.32,407.513 633,396.5C 638.462,397.264 643.962,397.764 649.5,398C 651.246,398.471 652.913,399.138 654.5,400C 648.023,405.31 642.023,411.143 636.5,417.5 Z"/></g>
<g><path style="opacity:0.039" fill="#ebe9f9" d="M 636.5,417.5 C 638.793,418.301 638.46,418.968 635.5,419.5C 635.5,419.167 635.5,418.833 635.5,418.5C 636.167,418.5 636.5,418.167 636.5,417.5 Z"/></g>
<g><path style="opacity:0.039" fill="#e0e3ef" d="M 634.5,419.5 C 634.833,419.5 635.167,419.5 635.5,419.5C 634.549,421.472 633.549,423.472 632.5,425.5C 631.313,426.653 630.313,426.653 629.5,425.5C 630.167,425.5 630.5,425.167 630.5,424.5C 630.427,422.973 631.094,421.973 632.5,421.5C 633.167,421.5 633.5,421.167 633.5,420.5C 633.5,419.833 633.833,419.5 634.5,419.5 Z"/></g>
<g><path style="opacity:1" fill="#101010" d="M 273.5,385.5 C 292.852,409.362 311.685,433.695 330,458.5C 345.959,433.871 363.459,410.371 382.5,388C 383.449,387.383 384.282,387.549 385,388.5C 386.175,419.14 387.008,449.807 387.5,480.5C 387.328,485.202 386.828,489.868 386,494.5C 380.333,495.833 374.667,495.833 369,494.5C 367.537,475.466 367.204,456.466 368,437.5C 355,454.833 342,472.167 329,489.5C 316.225,473.392 304.225,456.725 293,439.5C 292.297,458.357 292.464,476.69 293.5,494.5C 286.833,494.5 280.167,494.5 273.5,494.5C 273.843,463.29 273.177,432.123 271.5,401C 272.142,395.789 272.809,390.622 273.5,385.5 Z"/></g>
<g><path style="opacity:0.263" fill="#eeeefd" d="M 614.5,442.5 C 615.506,442.938 615.506,443.604 614.5,444.5C 613.167,443.833 613.167,443.167 614.5,442.5 Z"/></g>
<g><path style="opacity:1" fill="#0f0f10" d="M 770.5,471.5 C 769.833,471.5 769.5,471.833 769.5,472.5C 769.167,473.167 768.833,473.833 768.5,474.5C 767.5,474.833 766.833,475.5 766.5,476.5C 766.5,476.833 766.5,477.167 766.5,477.5C 756.386,490.719 742.886,496.719 726,495.5C 703.748,491.581 690.415,478.581 686,456.5C 685.734,435.821 685.234,415.154 684.5,394.5C 691.5,394.5 698.5,394.5 705.5,394.5C 704.416,414.5 704.583,434.5 706,454.5C 712.339,471.087 724.172,477.254 741.5,473C 748.754,469.677 753.588,464.177 756,456.5C 757.073,450.397 757.573,444.23 757.5,438C 757.167,423.832 757.167,409.666 757.5,395.5C 764.167,395.5 770.833,395.5 777.5,395.5C 777.531,416.512 777.031,437.512 776,458.5C 774.709,463.08 772.876,467.413 770.5,471.5 Z"/></g>
<g><path style="opacity:0.219" fill="#e5ebfb" d="M 770.5,471.5 C 771.598,472.601 771.765,473.934 771,475.5C 770.049,475.116 769.216,474.783 768.5,474.5C 768.833,473.833 769.167,473.167 769.5,472.5C 770.167,472.5 770.5,472.167 770.5,471.5 Z"/></g>
<g><path style="opacity:0.075" fill="#e4e9fa" d="M 766.5,476.5 C 770.029,477.297 770.195,478.297 767,479.5C 766.536,478.906 766.369,478.239 766.5,477.5C 766.5,477.167 766.5,476.833 766.5,476.5 Z"/></g>
<g><path style="opacity:0.039" fill="#e4e8f8" d="M 765.5,481.5 C 769.276,481.469 769.443,482.136 766,483.5C 764.316,483.317 764.15,482.65 765.5,481.5 Z"/></g>
<g><path style="opacity:1" fill="#0d0d0d" d="M 434.5,544.5 C 438.503,544.971 441.669,546.971 444,550.5C 444.667,551.167 444.667,551.833 444,552.5C 423.652,574.349 402.485,595.349 380.5,615.5C 377.588,612.755 375.254,609.589 373.5,606C 374.191,604.933 374.691,603.766 375,602.5C 395.086,583.245 414.92,563.911 434.5,544.5 Z"/></g>
<g><path style="opacity:1" fill="#0d0d0d" d="M 555.5,554.5 C 562.371,554.872 566.704,558.372 568.5,565C 564.791,575.013 558.624,577.179 550,571.5C 544.042,563.199 545.875,557.532 555.5,554.5 Z"/></g>
<g><path style="opacity:1" fill="#0b0b0b" d="M 481.5,555.5 C 488.185,556.208 491.019,559.875 490,566.5C 487.833,568.667 485.667,570.833 483.5,573C 476.438,574.47 471.771,571.803 469.5,565C 471.843,559.671 475.843,556.504 481.5,555.5 Z"/></g>
<g><path style="opacity:0.043" fill="#d9dce1" d="M 802.5,556.5 C 803.833,557.167 803.833,557.167 802.5,556.5 Z"/></g>
<g><path style="opacity:0.137" fill="#dbdde2" d="M 800.5,560.5 C 801.833,561.167 801.833,561.167 800.5,560.5 Z"/></g>
<g><path style="opacity:1" fill="#0a0a0b" d="M 510.5,549.5 C 525.159,548.655 531.659,555.321 530,569.5C 525.936,577.61 519.436,580.443 510.5,578C 502.584,573.177 500.084,566.343 503,557.5C 505.028,554.308 507.528,551.641 510.5,549.5 Z"/></g>
<g><path style="opacity:0.043" fill="#dadfe1" d="M 795.5,573.5 C 796.833,574.167 796.833,574.167 795.5,573.5 Z"/></g>
<g><path style="opacity:0.275" fill="#dde0e3" d="M 793.5,577.5 C 794.833,578.167 794.833,578.167 793.5,577.5 Z"/></g>
<g><path style="opacity:0.043" fill="#d2d6e1" d="M 766.5,625.5 C 767.833,626.167 767.833,626.167 766.5,625.5 Z"/></g>
<g><path style="opacity:0.043" fill="#dbdce3" d="M 758.5,630.5 C 759.239,630.369 759.906,630.536 760.5,631C 759.563,631.692 758.897,631.525 758.5,630.5 Z"/></g>
<g><path style="opacity:0.043" fill="#d8d9e2" d="M 756.5,634.5 C 756.5,634.167 756.5,633.833 756.5,633.5C 759.167,633.833 759.167,634.167 756.5,634.5 Z"/></g>
<g><path style="opacity:0.275" fill="#dcdee3" d="M 755.5,634.5 C 755.833,634.5 756.167,634.5 756.5,634.5C 756.315,635.17 755.981,635.17 755.5,634.5 Z"/></g>
<g><path style="opacity:0.275" fill="#d9d8e3" d="M 748.5,643.5 C 749.833,644.167 749.833,644.167 748.5,643.5 Z"/></g>
</svg>
