<?xml version="1.0" encoding="UTF-8"?>
<!-- Created with Inkscape (http://www.inkscape.org/) -->
<svg width="441.06" height="439.62" version="1.1" viewBox="0 0 441.06 439.62" xmlns="http://www.w3.org/2000/svg">
 <defs>
  <clipPath id="clip9">
   <path d="m451 706h34v33.98h-34z"/>
  </clipPath>
 </defs>
 <g transform="translate(1.3065e-5 -4.6195e-5)">
  <g transform="matrix(13.333 0 0 13.333 -6024.9 -9424.5)" clip-path="url(#clip9)">
   <path d="m484.89 709.52c-0.0859-1.3555-1.125-2.3789-2.5-2.457-1.5195-0.0898-6.4336-0.16797-7.8476-0.16797 2.5234 1.7422 2.8711 5.0234 3.1094 11.117 0.13672 3.6094 0.0117 16.262 4e-3 16.801l-0.0664 3.4492-13.273-13.273v-4.1523l10.555 10.555c0.0274-2.0898 0.0547-4.8125 0.0547-7.3047 0-2.4258-0.0352-4.6211-0.10547-5.7773-0.39844-6.6445-1.0156-9.7539-4.4844-10.977-1.0586-0.37109-2.0469-0.46093-3.6953-0.48046-1.3633-0.0195-10.844-0.0117-12.215 0.0625-1.457 0.0781-2.4336 1.1328-2.5 2.4961-0.0664 1.3438-0.0859 26.426 0 27.793 0.0859 1.3516 1.125 2.375 2.5 2.457 1.5195 0.0898 6.4336 0.10156 7.8477 0.10156-2.5274-1.7422-2.8711-5.0195-3.1094-11.117-0.13672-3.6094-0.0117-16.262 0-16.797l0.0625-3.4531 13.273 13.273v4.1524l-10.555-10.555c-0.0273 2.0898-0.0547 4.8125-0.0547 7.3047 0 2.4258 0.0391 4.625 0.10547 5.7812 0.39844 6.6406 1.0156 9.75 4.4844 10.973 1.0586 0.3711 2.0508 0.46094 3.6953 0.48438 1.3633 0.0117 10.848 8e-3 12.215-0.0664 1.457-0.0781 2.4336-1.1328 2.5-2.4961 0.0664-1.3438 0.0859-26.359 0-27.727"/>
  </g>
 </g>
</svg>
