<?xml version="1.0" encoding="UTF-8"?>
<!-- Creator: CorelDRAW -->
<svg xmlns="http://www.w3.org/2000/svg" xmlns:xlink="http://www.w3.org/1999/xlink" xmlns:xodm="http://www.corel.com/coreldraw/odm/2003" xml:space="preserve" width="41px" height="8px" version="1.1" style="shape-rendering:geometricPrecision; text-rendering:geometricPrecision; image-rendering:optimizeQuality; fill-rule:evenodd; clip-rule:evenodd" viewBox="0 0 41 7.58">
 <defs>
  <style type="text/css">
   <![CDATA[
    .fil0 {fill:#464646;fill-rule:nonzero}
   ]]>
  </style>
 </defs>
 <g id="Layer_x0020_1">
  <metadata id="CorelCorpID_0Corel-Layer"></metadata>
  <g id="_1588042502144">
   <g>
    <polygon class="fil0" points="8.02,1.91 8.96,1.91 8.96,4.27 11.8,4.27 11.8,1.91 12.75,1.91 12.75,7.58 11.8,7.58 11.8,5.22 8.96,5.22 8.96,7.58 8.02,7.58 "></polygon>
    <path class="fil0" d="M18.99 7.58l-1.09 -1.89 -1.61 0 0 1.89 -0.94 0 0 -5.67 2.84 0c0.52,0 0.96,0.18 1.33,0.55 0.38,0.37 0.56,0.82 0.56,1.34 0,0.39 -0.11,0.75 -0.33,1.07 -0.22,0.31 -0.5,0.54 -0.84,0.68l1.17 2.03 -1.09 0zm-0.8 -4.73l-1.9 0 0 1.9 1.9 0c0.26,0 0.48,-0.1 0.66,-0.28 0.19,-0.19 0.28,-0.41 0.28,-0.67 0,-0.26 -0.09,-0.48 -0.28,-0.67 -0.18,-0.18 -0.4,-0.28 -0.66,-0.28z"></path>
    <polygon class="fil0" points="26.46,1.91 26.46,2.85 23.62,2.85 23.62,4.28 26.46,4.28 26.46,5.22 23.62,5.22 23.62,6.64 26.46,6.64 26.46,7.58 22.68,7.58 22.68,1.91 "></polygon>
    <path class="fil0" d="M32.74 6.63l-2.62 0 -0.49 0.95 -1.06 0 2.85 -5.81 2.85 5.81 -1.06 0 -0.47 -0.95zm-2.16 -0.94l1.68 0 -0.84 -1.8 -0.84 1.8z"></path>
    <path class="fil0" d="M36.27 1.91l1.89 0c0.39,0 0.75,0.07 1.1,0.22 0.34,0.15 0.64,0.36 0.9,0.61 0.26,0.26 0.46,0.57 0.61,0.91 0.15,0.34 0.23,0.71 0.23,1.1 0,0.38 -0.08,0.75 -0.23,1.09 -0.15,0.35 -0.35,0.65 -0.61,0.91 -0.25,0.26 -0.55,0.46 -0.9,0.61 -0.35,0.15 -0.71,0.22 -1.1,0.22l-1.89 0 0 -5.67 0 0zm1.89 4.73c0.26,0 0.51,-0.05 0.74,-0.15 0.22,-0.1 0.43,-0.24 0.6,-0.41 0.17,-0.18 0.3,-0.38 0.4,-0.61 0.1,-0.23 0.15,-0.47 0.15,-0.72 0,-0.26 -0.05,-0.5 -0.15,-0.73 -0.1,-0.23 -0.23,-0.43 -0.41,-0.61 -0.17,-0.17 -0.37,-0.31 -0.6,-0.41 -0.23,-0.1 -0.47,-0.15 -0.73,-0.15l-0.95 0 0 3.79 0.95 0z"></path>
    <path class="fil0" d="M4.08 7.58l-0.94 0 0 -4.73 -1.43 0c-0.42,0 -0.76,0.35 -0.76,0.77 0,0.42 0.34,0.77 0.76,0.77l0 0.94c-0.94,0 -1.71,-0.77 -1.71,-1.71 0,-0.95 0.77,-1.71 1.71,-1.71l1.43 0 0 -0.48c0,-0.79 0.64,-1.43 1.42,-1.43 0.79,0 1.43,0.64 1.43,1.43 0,0.78 -0.64,1.42 -1.43,1.42l-0.48 0 0 4.73 0 0zm0 -5.67l0.48 0c0.27,0 0.48,-0.22 0.48,-0.48 0,-0.27 -0.21,-0.48 -0.48,-0.48 -0.26,0 -0.48,0.21 -0.48,0.48l0 0.48z"></path>
   </g>
  </g>
 </g>
</svg>
