<?xml version="1.0" encoding="UTF-8"?>
<svg xmlns="http://www.w3.org/2000/svg" width="43" height="43" viewBox="0 0 43 43" fill="none">
  <g id="Слой_x0020_1">
    <g id="_1841634757504">
      <path id="Vector" fill-rule="evenodd" clip-rule="evenodd" d="M20.0451 3.96394C29.8976 3.10244 37.7217 10.7115 38.4658 19.5946C39.294 29.4803 31.7477 37.3153 22.8204 38.0456C12.9496 38.853 5.1358 31.3662 4.38138 22.4005C3.54568 12.4686 11.1028 4.74588 20.0451 3.96394ZM0.419922 19.8403V22.0071C0.480211 22.1758 0.609049 23.9033 0.672011 24.3096C2.205 34.203 10.8171 41.9958 21.4017 42.0192C27.8385 42.0334 32.8111 39.1917 36.0185 36.1286C39.1808 33.1087 41.4419 28.9238 42.171 24.3494C42.2349 23.9483 42.3639 22.2306 42.4277 22.0509V19.9589C42.3656 19.7838 42.2379 18.0947 42.1765 17.6973C42.0657 16.9797 41.9168 16.3019 41.7408 15.6173C41.4141 14.347 40.9184 13.0354 40.4007 11.9639C37.4056 5.76474 31.5444 1.26226 24.6537 0.240433C24.274 0.184101 22.5806 0.0557703 22.4257 0H20.26C20.1509 0.0477764 18.3458 0.21613 18.003 0.271793C9.12245 1.71412 2.13624 8.72471 0.684016 17.6226C0.627122 17.9713 0.472003 19.7209 0.419922 19.8403Z" fill="black"></path>
      <path id="Vector_2" fill-rule="evenodd" clip-rule="evenodd" d="M21.596 9.92179L17.7633 9.9165L17.7466 13.605V21.1143C17.7466 22.3027 17.7421 23.5575 16.4112 23.5561C14.9807 23.5547 15.0961 22.3999 15.0961 21.1585C15.0961 19.907 15.0961 18.6554 15.0961 17.4038C15.0961 16.2849 15.2372 10.5207 15.0692 9.91629L11.2584 9.91626C11.1114 10.4896 11.2319 14.4157 11.2319 15.3278C11.2319 17.1535 11.2319 18.9793 11.2319 20.8051C11.2319 24.6139 12.4849 26.5369 16.4107 26.5346C20.3544 26.5322 21.6127 24.6693 21.6127 20.8493C21.6127 19.0235 21.6127 17.1977 21.6127 15.3719L21.596 9.92179Z" fill="black"></path>
      <path id="Vector_3" fill-rule="evenodd" clip-rule="evenodd" d="M23.1251 32.3567L31.6171 32.3562L31.6289 29.0338L26.9991 28.9975L26.9892 15.9904L23.126 15.9903L23.1251 32.3567Z" fill="black"></path>
      <path id="Vector_4" fill-rule="evenodd" clip-rule="evenodd" d="M19.3675 27.6568C20.9472 27.4515 21.2671 29.8997 19.6653 30.1041C18.0473 30.3106 17.7179 27.8711 19.3675 27.6568ZM19.2144 27.5289C17.4305 27.9367 17.9942 30.5738 19.7719 30.243C21.5662 29.9092 21.0213 27.1158 19.2144 27.5289Z" fill="#020202"></path>
      <path id="Vector_5" fill-rule="evenodd" clip-rule="evenodd" d="M19.2485 28.3345C19.4957 28.2905 19.7762 28.3025 19.7757 28.5803C19.7753 28.8457 19.493 28.9005 19.2449 28.8311L19.2485 28.3345ZM19.7145 28.9068C19.9626 28.817 20.0465 28.4733 19.8635 28.288C19.7093 28.1319 19.3372 28.167 19.0762 28.1684L19.0827 29.6445L19.2434 29.6446L19.2455 29.0107C19.9487 28.8575 19.684 29.3283 19.8269 29.6416L20.0099 29.6447C19.9012 29.0814 19.9683 28.9987 19.7145 28.9068Z" fill="black"></path>
    </g>
  </g>
</svg>
