<?xml version="1.0" encoding="UTF-8"?>
<!-- Created with Inkscape (http://www.inkscape.org/) -->
<svg width="30.85mm" height="32mm" version="1.1" viewBox="0 0 30.85 32" xmlns="http://www.w3.org/2000/svg">
 <g transform="translate(-45.749 -93.62)">
  <g transform="matrix(.050971 0 0 .054837 34.726 84.637)" clip-rule="evenodd" fill-rule="evenodd" image-rendering="optimizeQuality" shape-rendering="geometricPrecision">
   <g clip-rule="evenodd" fill-rule="evenodd" image-rendering="optimizeQuality" shape-rendering="geometricPrecision">
    <path d="m677.5 207.5c1.014 1.174 2.347 1.84 4 2 13.534 8.526 26.534 17.859 39 28 17.137 16.098 32.47 33.098 46 51-1.333 0.333-1.333 0.667 0 1 36.234 49.91 54.567 107.08 55 171.5 0.251 32.578-6.082 63.745-19 93.5-1.325-1.453-2.158-1.119-2.5 1-0.49-1.293-0.657-2.627-0.5-4h-12c0.596-1.898 0.596-3.565 0-5 30.838-93.975 16.005-179.98-44.5-258-30.727-37.451-68.56-65.285-113.5-83.5-105.83-39.785-203.83-25.952-294 41.5-1.042-1.291-2.208-1.291-3.5 0-0.202-1.756-0.702-3.422-1.5-5-1.342 1.505-3.008 2.172-5 2 0.392 3.222-0.108 6.222-1.5 9-1.726-1.076-3.559-1.243-5.5-0.5 1.321 1.545 0.988 2.711-1 3.5-1.611-0.82-2.278-2.154-2-4h-4c-0.333-3 1-4.333 4-4-0.333-3 1-4.333 4-4v-4c4.484-0.421 4.817-1.421 1-3 32.852-27.916 70.185-48.083 112-60.5 85.044-23.492 166.71-12.992 245 31.5z" fill="#101011"/>
    <path d="m675.5 268.5c4.219 0.704 7.552 2.871 10 6.5-8.303 9.304-16.969 18.304-26 27-18.333 16.333-36.667 32.667-55 49-1.902 1.301-3.902 1.968-6 2-2.163-1.998-3.83-4.332-5-7 0.817-1.49 1.65-2.99 2.5-4.5 25.744-25.248 52.244-49.581 79.5-73z" fill="#0d0e0e"/>
    <path d="m320.5 236.5c3.817 1.579 3.484 2.579-1 3v4c-3-0.333-4.333 1-4 4-3-0.333-4.333 1-4 4h4c-0.278 1.846 0.389 3.18 2 4 1.988-0.789 2.321-1.955 1-3.5 1.941-0.743 3.774-0.576 5.5 0.5 1.392-2.778 1.892-5.778 1.5-9 1.992 0.172 3.658-0.495 5-2 0.798 1.578 1.298 3.244 1.5 5 1.292-1.291 2.458-1.291 3.5 0-87.212 76.808-118.04 172.14-92.5 286 13.947 44.747 38.113 82.913 72.5 114.5 87.384 78.695 186.72 101.03 298 67 82.752-30.254 140.75-86.088 174-167.5 0.596 1.435 0.596 3.102 0 5h12c-0.157 1.373 0.01 2.707 0.5 4 0.342-2.119 1.175-2.453 2.5-1v2c-1.333 0.333-1.333 0.667 0 1-1.051 0.722-1.718 1.722-2 3-10.94 25.222-24.94 48.555-42 70-0.901 0.79-1.568 1.79-2 3-0.667 0-1 0.333-1 1-1.333 0.333-1.333 0.667 0 1-3.02 2.023-5.354 4.69-7 8-73.928 79.71-165.26 113.54-274 101.5-52.598-7.964-99.931-27.964-142-60-86.967-65.499-125.13-152.66-114.5-261.5 10.579-71.667 42.079-132.17 94.5-181.5 2.565-2.08 5.232-3.913 8-5.5z" fill="#111"/>
    <path d="m447.5 394.5c1.824 18.64 2.657 37.64 2.5 57 5.36 18.6 17.527 25.767 36.5 21.5 6.833-2.833 11.667-7.667 14.5-14.5 1.058-6.781 1.558-13.614 1.5-20.5-0.631-14.494-0.964-28.994-1-43.5h20c0.167 21.003 0 42.003-0.5 63-7.984 30.26-27.484 42.094-58.5 35.5-21.274-8.405-31.941-23.905-32-46.5-0.777-16.968-1.444-33.968-2-51 6.522 0.323 12.855-0.01 19-1z" fill="#0e0e0f"/>
    <path d="m636.5 417.5c-0.667 0-1 0.333-1 1-0.667 0-1 0.333-1 1-0.667 0-1 0.333-1 1-0.667 0-1 0.333-1 1-1.406 0.473-2.073 1.473-2 3-0.667 0-1 0.333-1 1-5.343 5.344-10.343 11.011-15 17-1.333 0.667-1.333 1.333 0 2 10.371 10.871 20.204 22.204 29.5 34 3.035 3.37 6.368 6.37 10 9 1.128 1.845 1.628 3.845 1.5 6-7.255-0.313-14.421 0.02-21.5 1-10.326-11.992-20.993-23.659-32-35-10.798 11.467-21.632 22.967-32.5 34.5-0.916 0.374-1.75 0.874-2.5 1.5-5.339-1.573-10.839-2.406-16.5-2.5-1.172-1.868-1.005-3.702 0.5-5.5 13.534-13.866 26.701-28.032 39.5-42.5-11.833-13.167-23.667-26.333-35.5-39.5-1.993-2.318-3.159-4.984-3.5-8 6.638 0.239 13.138-0.427 19.5-2 11.076 11.072 21.41 22.739 31 35 9.987-11.654 20.32-22.987 31-34 5.462 0.764 10.962 1.264 16.5 1.5 1.746 0.471 3.413 1.138 5 2-6.477 5.31-12.477 11.143-18 17.5z" fill="#0e0e0e"/>
    <path d="m273.5 385.5c19.352 23.862 38.185 48.195 56.5 73 15.959-24.629 33.459-48.129 52.5-70.5 0.949-0.617 1.782-0.451 2.5 0.5 1.175 30.64 2.008 61.307 2.5 92-0.172 4.702-0.672 9.368-1.5 14-5.667 1.333-11.333 1.333-17 0-1.463-19.034-1.796-38.034-1-57-13 17.333-26 34.667-39 52-12.775-16.108-24.775-32.775-36-50-0.703 18.857-0.536 37.19 0.5 55h-20c0.343-31.21-0.323-62.377-2-93.5 0.642-5.211 1.309-10.378 2-15.5z" fill="#101010"/>
    <path d="m614.5 442.5c1.006 0.438 1.006 1.104 0 2-1.333-0.667-1.333-1.333 0-2z" fill="#eeeefd" opacity=".263"/>
    <path d="m770.5 471.5c-0.667 0-1 0.333-1 1-0.333 0.667-0.667 1.333-1 2-1 0.333-1.667 1-2 2v1c-10.114 13.219-23.614 19.219-40.5 18-22.252-3.919-35.585-16.919-40-39-0.266-20.679-0.766-41.346-1.5-62h21c-1.084 20-0.917 40 0.5 60 6.339 16.587 18.172 22.754 35.5 18.5 7.254-3.323 12.088-8.823 14.5-16.5 1.073-6.103 1.573-12.27 1.5-18.5-0.333-14.168-0.333-28.334 0-42.5h20c0.031 21.012-0.469 42.012-1.5 63-1.291 4.58-3.124 8.913-5.5 13z" fill="#0f0f10"/>
    <path d="m434.5 544.5c4.003 0.471 7.169 2.471 9.5 6 0.667 0.667 0.667 1.333 0 2-20.348 21.849-41.515 42.849-63.5 63-2.912-2.745-5.246-5.911-7-9.5 0.691-1.067 1.191-2.234 1.5-3.5 20.086-19.255 39.92-38.589 59.5-58z" fill="#0d0d0d"/>
    <path d="m555.5 554.5c6.871 0.372 11.204 3.872 13 10.5-3.709 10.013-9.876 12.179-18.5 6.5-5.958-8.301-4.125-13.968 5.5-17z" fill="#0d0d0d"/>
    <path d="m481.5 555.5c6.685 0.708 9.519 4.375 8.5 11l-6.5 6.5c-7.062 1.47-11.729-1.197-14-8 2.343-5.329 6.343-8.496 12-9.5z" fill="#0b0b0b"/>
   </g>
   <path d="m510.5 549.5c14.659-0.845 21.159 5.821 19.5 20-4.064 8.11-10.564 10.943-19.5 8.5-7.916-4.823-10.416-11.657-7.5-20.5 2.028-3.192 4.528-5.859 7.5-8z" fill="#0a0a0b"/>
  </g>
 </g>
</svg>
