<?xml version="1.0" encoding="UTF-8"?>
<!-- Creator: CorelDRAW -->
<svg xmlns="http://www.w3.org/2000/svg" xmlns:xlink="http://www.w3.org/1999/xlink" xmlns:xodm="http://www.corel.com/coreldraw/odm/2003" xml:space="preserve" width="41px" height="36px" version="1.1" style="shape-rendering:geometricPrecision; text-rendering:geometricPrecision; image-rendering:optimizeQuality; fill-rule:evenodd; clip-rule:evenodd" viewBox="0 0 41 35.79">
 <defs>
  <style type="text/css">
   <![CDATA[
    .fil0 {fill:black;fill-rule:nonzero}
    .fil1 {fill:#32DE84;fill-rule:nonzero}
   ]]>
  </style>
 </defs>
 <g id="Layer_x0020_1">
  <metadata id="CorelCorpID_0Corel-Layer"></metadata>
  <g id="_2689018187024">
   <g>
    <path class="fil0" d="M2.86 29.6c-1.41,0 -2.86,1.13 -2.86,3.1 0,1.81 1.27,3.09 2.86,3.09 1.31,0 1.89,-0.88 1.89,-0.88l0 0.38c0,0.18 0.17,0.39 0.38,0.39l0.95 0 0 -5.95 -1.33 0 0 0.76c0,0 -0.59,-0.89 -1.89,-0.89l0 0zm0.24 1.21c1.16,0 1.77,1.02 1.77,1.89 0,0.97 -0.73,1.89 -1.77,1.89 -0.87,0 -1.75,-0.7 -1.75,-1.9 0,-1.08 0.75,-1.88 1.75,-1.88l0 0z"></path>
    <path class="fil0" d="M7.93 35.68c-0.21,0 -0.39,-0.15 -0.39,-0.39l0 -5.56 1.33 0 0 0.74c0.3,-0.45 0.89,-0.87 1.79,-0.87 1.48,0 2.26,1.17 2.26,2.27l0 3.81 -0.92 0c-0.24,0 -0.4,-0.21 -0.4,-0.41l0 -3.11c0,-0.61 -0.38,-1.35 -1.24,-1.35 -0.93,0 -1.49,0.88 -1.49,1.71l0 3.16 -0.94 0z"></path>
    <path class="fil0" d="M16.8 29.6c-1.41,0 -2.86,1.13 -2.86,3.1 0,1.81 1.27,3.09 2.86,3.09 1.31,0 1.89,-0.88 1.89,-0.88l0 0.38c0,0.18 0.17,0.39 0.38,0.39l0.95 0 0 -8.92 -1.33 0 0 3.73c0,0 -0.59,-0.89 -1.89,-0.89l0 0zm0.23 1.21c1.16,0 1.77,1.02 1.77,1.89 0,0.97 -0.72,1.89 -1.76,1.89 -0.88,0 -1.75,-0.7 -1.75,-1.9 0,-1.08 0.75,-1.88 1.74,-1.88l0 0z"></path>
    <path class="fil0" d="M21.86 35.68c-0.2,0 -0.38,-0.15 -0.38,-0.39l0 -5.56 1.33 0 0 0.99c0.23,-0.55 0.72,-1.06 1.6,-1.06 0.24,0 0.47,0.05 0.47,0.05l0 1.37c0,0 -0.28,-0.11 -0.63,-0.11 -0.93,0 -1.44,0.88 -1.44,1.71l0 3 -0.95 0z"></path>
    <path class="fil0" d="M32.94 35.68c-0.2,0 -0.38,-0.15 -0.38,-0.39l0 -5.56 1.33 0 0 5.95 -0.95 0z"></path>
    <path class="fil0" d="M37.78 29.6c-1.41,0 -2.86,1.13 -2.86,3.1 0,1.81 1.28,3.09 2.86,3.09 1.31,0 1.89,-0.88 1.89,-0.88l0 0.38c0,0.18 0.17,0.39 0.39,0.39l0.94 0 0 -8.92 -1.33 0 0 3.73c0,0 -0.58,-0.89 -1.89,-0.89l0 0zm0.24 1.21c1.16,0 1.77,1.02 1.77,1.89 0,0.97 -0.72,1.89 -1.77,1.89 -0.87,0 -1.75,-0.7 -1.75,-1.9 0,-1.08 0.76,-1.88 1.75,-1.88l0 0z"></path>
    <circle class="fil0" cx="33.21" cy="27.57" r="0.88"></circle>
    <path class="fil0" d="M28.38 29.6c-1.47,0 -3.09,1.1 -3.09,3.09 0,1.82 1.38,3.1 3.09,3.1 2.11,0 3.14,-1.7 3.14,-3.08 0,-1.71 -1.32,-3.11 -3.14,-3.11l0 0zm0.01 1.24c1.02,0 1.78,0.82 1.78,1.86 0,1.05 -0.81,1.87 -1.78,1.87 -0.9,0 -1.78,-0.73 -1.78,-1.85 0,-1.14 0.84,-1.88 1.78,-1.88l0 0z"></path>
   </g>
   <path class="fil1" d="M30.51 6.92l3.4 -5.88c0.19,-0.34 0.07,-0.75 -0.25,-0.95 -0.33,-0.19 -0.75,-0.08 -0.94,0.25l-3.44 5.97c-2.63,-1.2 -5.59,-1.87 -8.77,-1.87 -3.18,0 -6.14,0.67 -8.76,1.87l-3.45 -5.97c-0.19,-0.33 -0.61,-0.44 -0.94,-0.25 -0.33,0.2 -0.44,0.61 -0.25,0.95l3.4 5.88c-5.86,3.18 -9.83,9.11 -10.49,16.06l40.98 0c-0.66,-6.95 -4.63,-12.88 -10.49,-16.06l0 0zm-19.41 10.3c-0.95,0 -1.71,-0.77 -1.71,-1.71 0,-0.96 0.77,-1.72 1.71,-1.72 0.95,0 1.72,0.77 1.72,1.72 0.01,0.94 -0.77,1.71 -1.72,1.71zm18.81 0c-0.95,0 -1.71,-0.77 -1.71,-1.71 0,-0.96 0.77,-1.72 1.71,-1.72 0.95,0 1.72,0.77 1.72,1.72 0.01,0.94 -0.77,1.71 -1.72,1.71z"></path>
  </g>
 </g>
</svg>
