<?xml version="1.0" encoding="UTF-8" standalone="no"?>
<!-- Creator: CorelDRAW -->

<svg
   xml:space="preserve"
   width="40"
   height="25"
   version="1.1"
   style="clip-rule:evenodd;fill-rule:evenodd;image-rendering:optimizeQuality;shape-rendering:geometricPrecision;text-rendering:geometricPrecision"
   viewBox="0 0 12.39 7.7"
   id="svg441"
   sodipodi:docname="linux-logo.svg"
   inkscape:version="1.2.2 (b0a8486541, 2022-12-01)"
   xmlns:inkscape="http://www.inkscape.org/namespaces/inkscape"
   xmlns:sodipodi="http://sodipodi.sourceforge.net/DTD/sodipodi-0.dtd"
   xmlns="http://www.w3.org/2000/svg"
   xmlns:svg="http://www.w3.org/2000/svg"><sodipodi:namedview
   id="namedview443"
   pagecolor="#ffffff"
   bordercolor="#666666"
   borderopacity="1.0"
   inkscape:showpageshadow="2"
   inkscape:pageopacity="0.0"
   inkscape:pagecheckerboard="0"
   inkscape:deskcolor="#d1d1d1"
   showgrid="false"
   inkscape:zoom="30.7"
   inkscape:cx="19.95114"
   inkscape:cy="11.091205"
   inkscape:window-width="1920"
   inkscape:window-height="1008"
   inkscape:window-x="1920"
   inkscape:window-y="0"
   inkscape:window-maximized="1"
   inkscape:current-layer="Layer_x0020_1" />
 <defs
   id="defs424">
  <style
   type="text/css"
   id="style422">
   <![CDATA[
    .fil1 {fill:black;fill-rule:nonzero}
    .fil2 {fill:#F0B800;fill-rule:nonzero}
    .fil3 {fill:#FF2400;fill-rule:nonzero}
    .fil0 {fill:white;fill-rule:nonzero}
   ]]>
  </style>
 </defs>
 <g
   id="Layer_x0020_1"
   inkscape:label="Layer 1"
   inkscape:groupmode="layer">
  <metadata
   id="CorelCorpID_0Corel-Layer" />
  <path
   id="path950"
   class="fil0"
   d="m 10.040179,4.2840309 0.11,0.1 0.3,0.29 0.4,-0.05 0.32,-0.1 0.09,-0.15 0.23,-0.15 0.03,-0.3 0.1,0.02 0.13,-0.67 -0.14,-0.49 -0.27,-0.46 -0.18,-0.7 0.07,-0.63999996 -0.58,-0.11 -0.45,0.1 -0.09,0.21999996 c 0,0 -0.03,0.2 -0.03,0.21 0,0.01 0.01,0.2 0.01,0.2 l -0.03,0.32 -0.06,0.41 -0.1799998,0.46 c 0,0 -0.09,0.45 -0.12,0.45 -0.04,0 0.01,0.22 0.01,0.22 l 0.19,0.45 z" />
  <path
   id="path30"
   class="fil1"
   d="m 10.580179,0.46403094 c -0.32,0.04 -0.56,0.32 -0.54,0.64999996 0,0.6 0.07,0.82 -0.1999998,1.16 -0.27,0.34 -0.44,0.6 -0.51,0.84 -0.04,0.16 -0.06,0.31 -0.06,0.47 0,0 0,0.07 0.06,0.01 0.07,-0.06 0.26,-0.04 0.36,0.13 0.09,0.17 0.27,0.44 0.27,0.44 l 0.08,0.12 0.13,-0.04 c 0,0 0.12,-0.08 0,-0.25 -0.07,-0.1 -0.16,-0.19 -0.2499998,-0.27 0,0 -0.29,-0.14 -0.34,-0.31 -0.05,-0.3 0.03,-0.59 0.21,-0.82 0.14,-0.16 -0.03,0.13 -0.08,0.23 -0.11,0.24 -0.12,0.56 -0.12,0.72 0,0.07 0.17,0.11 0.21,0.14 0.03,0.02 -0.1,-0.24 -0.09,-0.22 0.05,-0.61 0.3299998,-0.74 0.4999998,-1.58 -0.13,-0.07 -0.11,-0.25 0.02,-0.3 -0.06,-0.09 -0.09,-0.2 -0.06,-0.31 0.04,-0.13 0.08,-0.15 0.14,-0.15 0.05,-0.01 0.18,0.05 0.16,0.3 0.06,0 0.12,0 0.18,0 0,0 -0.04,-0.23 0.13,-0.31 0.1,-0.05 0.22,-0.02 0.27,0.08 0.07,0.12 0.06,0.27 -0.03,0.39 0.1,0.04 0.13,0.16 0.07,0.24 l 0.14,0.45 c 0,0 0.2,0.38 0.29,0.6 0.06,0.13 0.1,0.26 0.12,0.4 h 0.11 c 0,0 0.17,-0.42 -0.23,-0.82 -0.02,-0.03 0,0 0,0 0.01,0.01 0.41,0.38 0.32,0.85 0.07,0.06 0.31,0.1 0.27,0.36 0.09,0.01 0.11,0 0.11,0 0.06,-0.27 0.04,-0.54 -0.06,-0.79 -0.11,-0.27 -0.27,-0.51 -0.47,-0.72 -0.15,-0.17 -0.24,-0.38 -0.23,-0.6 0.02,-0.29 -0.03,-0.56999996 -0.12,-0.83999996 -0.09,-0.16 -0.25,-0.25 -0.43,-0.25 -0.11,-0.01 -0.22,-0.01 -0.33,0 z M 0.02017915,2.6840309 v -0.17 h 0.93 v 0.17 h -0.17 c 0,0 0,0 0,0 -0.04,0 -0.07,0.03 -0.07,0.06 0,0 0,0.01 0,0.01 v 1.76 H 1.2901792 c 0,0 0.1,0.05 0.12,-0.45 h 0.24 v 0.62 H 0.02017915 v -0.15 h 0.18 c 0,0 0.08,-0.03 0.08,-0.08 v -1.71 c 0,0 -0.01,-0.06 -0.1,-0.06 z m 6.58000005,0.57 v -0.15 h 0.77 v 0.14 c 0,0 -0.17,0 -0.12,0.08 l 0.25,0.37 0.25,-0.37 c 0,0 0.06,-0.07 -0.14,-0.07 v -0.15 h 0.6 v 0.15 c -0.08,0 -0.15,0.02 -0.21,0.07 l -0.38,0.51 0.47,0.68 c 0.05,0.03 0.11,0.04 0.16,0.04 0.01,0 0.01,0 0.02,0 v 0.13 h -0.77 v -0.12 c 0,0 0.18,0 0.12,-0.09 l -0.27,-0.4 -0.28,0.41 c 0,0 -0.07,0.06 0.14,0.06 v 0.14 h -0.62 v -0.14 c 0.01,0 0.02,0 0.02,0 0.07,0 0.14,-0.02 0.19,-0.07 l 0.42,-0.55 -0.42,-0.6 c 0,0 -0.01,-0.07 -0.2,-0.07 z m -1.7,0.11 h -0.21 v -0.13 l 0.44,-0.15 h 0.17 v 1.05 c 0,0 -0.01,0.34 0.31,0.31 0.09,-0.01 0.19,-0.02 0.28,-0.05 v -1.03 h -0.22 v -0.13 l 0.44,-0.16 h 0.18 v 1.39 c 0,0 -0.01,0.07 0.08,0.07 h 0.12 v 0.16 h -0.6 v -0.18 c 0,0 -0.31,0.21 -0.56,0.2 0,0 -0.41,0.03 -0.43,-0.45 v -0.9 z m -1.33,1.32 h -0.8 v -0.14 h 0.13 c 0,0 0.08,-0.01 0.08,-0.07 v -1.11 h -0.22 v -0.13 l 0.46,-0.16 h 0.16 v 0.2 c 0,0 0.35,-0.19 0.56,-0.19 0.01,0 0.02,0 0.03,0 0.22,0 0.39,0.17 0.39,0.38 0,0.02 0,0.03 0,0.04 v 0.96 c 0.01,0.04 0.05,0.08 0.09,0.08 0,0 0.01,0 0.01,0 h 0.13 v 0.14 h -0.79 v -0.15 h 0.11 c 0.03,0 0.06,-0.03 0.07,-0.06 v -0.84 c -0.01,-0.15 -0.14,-0.28 -0.29,-0.28 -0.01,0 -0.01,0 -0.01,0 -0.1,0.02 -0.2,0.04 -0.3,0.07 v 1.05 c 0.01,0.04 0.05,0.06 0.08,0.06 h 0.11 z" />
  <path
   id="path38"
   class="fil1"
   d="m 10.150179,4.3840309 c 0,0 0.37,0.31 0.72,0.16 0.14,-0.04 0.49,-0.25 0.62,-0.32 0,0 -0.1,0.46 -0.05,0.53 0.04,0.06 -0.51,-0.07 -0.76,-0.06 -0.25,0.01 -0.42,0.03 -0.66,0.05 0.07,-0.1 -0.6299998,-0.88 -0.7399998,-1.13 -0.05,-0.1 0.33,-0.05 0.33,-0.05 z" />
  <path
   id="path956"
   class="fil1"
   d="m 11.640179,3.2140309 c 0.03,0 0.1,-0.46 0.1,-0.38 0.1,0.17 0.08,0.38 0.08,0.38 l -0.01,1.24 -0.3,-0.64 c 0,0 0.15,-0.44 0.13,-0.6 z" />
  <path
   id="path34"
   class="fil2"
   d="m 12.410179,4.2940309 c -0.02,-0.15 -0.06,-0.12 -0.12,-0.18 -0.05,-0.06 -0.02,-0.14 -0.05,-0.21 -0.04,-0.07 -0.05,-0.13 -0.18,-0.11 -0.14,0.03 -0.25,0.23 -0.46,0.09 -0.07,-0.05 -0.12,-0.2 -0.12,-0.07 0,0.02 -0.01,0.04 -0.01,0.06 0,0.13 -0.02,0.27 -0.05,0.4 -0.06,0.2 -0.15,0.32 -0.04,0.46 0.05,0.07 0.13,0.12 0.21,0.12 0.01,0 0.01,0 0.02,0 0.1,-0.02 0.19,-0.06 0.26,-0.13 0.09,-0.09 0.2,-0.16 0.31,-0.21 0.09,-0.04 0.25,-0.07 0.23,-0.22 z m -1.98,-2.74 c -0.06,0.03 -0.12,0.07 -0.17,0.12 -0.03,0.02 -0.04,0.05 -0.04,0.07 0,0.03 0.01,0.06 0.04,0.08 0.06,0.06 0.13,0.12 0.2,0.17 0.03,0.02 0.08,0.04 0.12,0.04 0.04,0 0.07,-0.01 0.1,-0.03 0.1,-0.04 0.26,-0.14 0.26,-0.14 0,0 0.19,-0.14 0,-0.23 -0.18,-0.08 -0.14,-0.07 -0.26,-0.12 -0.03,-0.01 -0.07,-0.02 -0.1,-0.02 -0.06,0 -0.11,0.02 -0.15,0.06 z m -0.9899998,2.14 c -0.15,0.03 -0.13,0.12 -0.2,0.18 -0.06,0.05 -0.13,0.05 -0.2,0.09 -0.07,0.04 -0.1,0.1 -0.07,0.25 0.01,0.03 0.01,0.06 0.01,0.09 0,0.07 -0.01,0.12 -0.04,0.18 -0.02,0.06 0.01,0.17 0.15,0.17 0.13,0 0.26,0.02 0.39,0.06 0.21,0.05 0.35,0.19 0.49,0.07 0.08,-0.06 0.1199998,-0.14 0.1199998,-0.23 0,-0.01 0,-0.02 0,-0.02 -0.02,-0.11 -0.07,-0.2 -0.1499998,-0.27 -0.1,-0.09 -0.18,-0.2 -0.23,-0.33 -0.05,-0.08 -0.11,-0.26 -0.27,-0.24 z" />
  <path
   id="path36"
   class="fil1"
   d="m 11.750179,3.3640309 c 0,0 -0.27,-0.06 -0.23,0.18 0.04,0.23 0.13,0.27 0.13,0.27 0.03,0.03 0.07,0.04 0.11,0.04 0.04,0 0.08,-0.01 0.12,-0.04 0.07,-0.04 0.13,-0.1 0.17,-0.16 0,0 0.08,-0.12 -0.09,-0.21 -0.06,-0.04 -0.13,-0.07 -0.21,-0.08 z" />
  <path
   id="path40"
   class="fil1"
   d="m 10.350179,1.2640309 c 0.04,0 0.08,0.07 0.08,0.15 0,0.01 0,0.03 -0.01,0.05 -0.03,0.03 -0.07,0.06 -0.11,0.08 -0.03,-0.04 -0.05,-0.08 -0.05,-0.12 0,-0.01 0,-0.01 0,-0.01 0,-0.08 0.04,-0.15 0.09,-0.15 z" />
  <path
   id="path42"
   class="fil1"
   d="m 10.870179,1.2540309 c 0.07,0.01 0.12,0.07 0.12,0.14 0,0 0,0.01 0,0.01 0,0.05 -0.02,0.1 -0.06,0.14 -0.02,0.02 -0.11,-0.02 -0.16,-0.05 -0.01,-0.02 -0.02,-0.05 -0.02,-0.07 0,-0.01 0,-0.02 0,-0.02 0,-0.08 0.05,-0.15 0.12,-0.15 z" />
  <path
   id="path14"
   class="fil3"
   d="m 1.7901792,3.3740309 v -0.13 l 0.44,-0.16 h 0.17 v 1.39 c 0,0 0.01,0.08 0.1,0.08 h 0.12 v 0.13 h -0.84 v -0.14 h 0.13 c 0,0 0.08,-0.01 0.09,-0.06 v -1.11 z m 0.67,-0.77 c 0,-0.14 -0.11,-0.24 -0.24,-0.24 -0.13,0 -0.24,0.1 -0.24,0.24 0,0.13 0.11,0.23 0.24,0.23 0.13,0 0.24,-0.1 0.24,-0.23 z" />
  <polygon
   id="path22"
   class="fil1"
   points="8.35,2.57 8.32,2.57 8.32,2.52 8.29,2.52 8.29,2.64 8.32,2.64 8.32,2.67 8.22,2.67 8.22,2.64 8.25,2.64 8.25,2.52 8.22,2.52 8.22,2.57 8.18,2.57 8.18,2.48 8.35,2.48 "
   transform="translate(0.02017915,0.45403094)" />
  <polygon
   id="path24"
   class="fil1"
   points="8.37,2.52 8.37,2.48 8.42,2.48 8.42,2.52 8.44,2.52 8.44,2.55 8.45,2.55 8.45,2.57 8.47,2.57 8.47,2.55 8.49,2.55 8.49,2.52 8.51,2.52 8.51,2.48 8.56,2.48 8.56,2.52 8.54,2.52 8.54,2.64 8.56,2.64 8.56,2.67 8.47,2.67 8.47,2.64 8.51,2.64 8.51,2.58 8.49,2.58 8.49,2.6 8.47,2.6 8.47,2.62 8.45,2.62 8.45,2.6 8.44,2.6 8.44,2.58 8.42,2.58 8.42,2.63 8.45,2.63 8.45,2.67 8.37,2.67 8.37,2.64 8.39,2.64 8.39,2.52 "
   transform="translate(0.02017915,0.45403094)" />
  <path
   class="fil1"
   d="m 0.02017915,6.5840309 c 0.01,-0.01 0.01,-0.01 0.02,-0.01 0.01,0 0.03,-0.01 0.06,-0.01 0.07,0 0.11,-0.01 0.13,-0.02 0.01,-0.01 0.02,-0.03 0.02,-0.06 l -0.01,-0.07 0.01,-0.28 -0.01,-0.12 v -0.27 -0.31 c 0,-0.07 -0.01,-0.11 -0.01,-0.12 -0.02,-0.01 -0.06,-0.02 -0.12,-0.02 -0.03,0 -0.05,-0.01 -0.07,-0.01 -0.01,0 -0.01,-0.01 -0.01,-0.02 0,0 0,-0.01 0,-0.02 0.01,0 0.01,0 0.02,0 0.01,0 0.02,0 0.03,0 0.05,0 0.09,0 0.13,0 h 0.08 l 0.19,0.01 c 0.1,0 0.17,-0.01 0.22,-0.01 0.05,0 0.09,0 0.11,0 0.02,0 0.06,0 0.12,0 H 1.0801792 l 0.02,0.01 0.09,-0.01 0.01,0.01 c 0,0 0.01,0.01 0.01,0.02 0,0.01 0,0.02 -0.01,0.04 0,0.02 0,0.04 0,0.04 0,0.08 0,0.14 0.01,0.19 0,0 -0.01,0.01 -0.01,0.01 -0.01,0 -0.02,0 -0.02,-0.01 -0.01,-0.01 -0.02,-0.03 -0.03,-0.07 -0.02,-0.03 -0.04,-0.07 -0.06,-0.12 -0.02,-0.02 -0.03,-0.04 -0.04,-0.05 -0.01,0 -0.03,-0.01 -0.0700001,-0.01 0,0 -0.03,0 -0.09,0 -0.02,0 -0.03,0 -0.05,0 l -0.3,0.01 h -0.03 c -0.04,0 -0.06,0 -0.07,0.01 -0.01,0.02 -0.02,0.07 -0.02,0.15 0,0.01 0,0.09 0.01,0.26 v 0.14 c 0,0.01 0.01,0.01 0.02,0.01 h 0.02 c 0.01,0 0.03,0 0.05,0 0.04,0 0.06,0 0.08,0 0.01,0 0.01,0 0.02,0 0.08,0 0.17,0 0.29,0 0.04,-0.01 0.06,-0.02 0.07,-0.03 0.01,-0.01 0.0200001,-0.04 0.0200001,-0.1 0.01,-0.05 0.02,-0.08 0.04,-0.09 0.01,0 0.02,0 0.03,0.01 0,0 0,0.01 0,0.01 0,0.01 0,0.02 0,0.03 -0.01,0.02 -0.01,0.11 -0.01,0.24 0,0.04 0.01,0.08 0.01,0.13 0,0.04 0,0.07 0,0.07 0,0.01 0,0.02 0,0.03 0,0 -0.01,0 -0.01,0 h -0.01 c -0.01,-0.02 -0.02,-0.05 -0.03,-0.09 -0.02,-0.07 -0.0400001,-0.12 -0.0600001,-0.14 -0.02,-0.01 -0.05,-0.02 -0.1,-0.02 -0.01,0 -0.03,0 -0.05,0 -0.03,0 -0.07,0 -0.12,0 h -0.07 c -0.1,0 -0.16,0 -0.19,0.01 l -0.01,0.03 0.01,0.2 -0.01,0.12 0.01,0.12 c 0,0.08 0,0.12 0.01,0.13 0.01,0.02 0.04,0.02 0.08,0.02 h 0.06 c 0.01,0 0.03,0 0.07,0 0.04,0.01 0.09,0.01 0.14,0.01 0.14,0 0.23000005,-0.01 0.28000005,-0.02 0.04,-0.01 0.08,-0.03 0.11,-0.06 0.03,-0.03 0.07,-0.1 0.11,-0.2 0.02,-0.03 0.03,-0.04 0.04,-0.04 0.01,0 0.02,0 0.02,0.01 -0.02,0.07 -0.03,0.11 -0.03,0.14 -0.01,0.05 -0.01,0.1 -0.01,0.15 0,0.02 -0.01,0.04 -0.02,0.06 h -0.02 -0.30000005 -0.14 -0.32 -0.13 c -0.02,0 -0.03,0 -0.05,0 -0.13,0.01 -0.22,0.01 -0.28,0.01 -0.01,0 -0.02,0 -0.02,0 -0.01,-0.01 -0.01,-0.01 -0.01,-0.02 z m 1.40000005,0 c 0.02,-0.02 0.06,-0.03 0.12,-0.04 0.05,0 0.07,0 0.08,-0.01 0.01,0 0.01,-0.01 0.01,-0.01 0.02,-0.03 0.02,-0.1 0.03,-0.22 0,-0.15 0.01,-0.35 0.03,-0.61 0.01,-0.19 0.02,-0.31 0.02,-0.36 v -0.02 c -0.06,-0.01 -0.14,-0.02 -0.25,-0.04 0,-0.01 -0.01,-0.01 -0.01,-0.02 0,0 0,-0.01 0.01,-0.02 0.01,0 0.02,-0.01 0.03,-0.01 0,0 0.02,0.01 0.03,0.01 0.04,0 0.09,0 0.15,0 0.02,0 0.05,0 0.1,0 0.04,0 0.06,-0.01 0.06,-0.01 0.01,0 0.02,0.01 0.04,0.01 0.01,0.01 0.01,0.01 0.01,0.02 l 0.05,0.1 0.3,0.67 0.13,0.28 c 0.1,-0.2 0.17,-0.37 0.23,-0.52 0,-0.01 0.01,-0.02 0.01,-0.03 0.01,-0.01 0.01,-0.03 0.02,-0.04 0,-0.02 0.03,-0.07 0.07,-0.17 0.01,-0.04 0.03,-0.08 0.04,-0.11 0.04,-0.11 0.06,-0.17 0.07,-0.19 0.01,-0.01 0.03,-0.01 0.03,-0.01 0.02,0 0.03,0 0.05,0 0.04,0.01 0.1,0.01 0.19,0.01 0.06,0 0.1,0 0.14,0 0,0 0,0.01 0,0.01 0,0.01 0,0.01 0,0.02 -0.02,0.01 -0.05,0.02 -0.08,0.02 -0.07,0.01 -0.11,0.01 -0.12,0.02 -0.02,0 -0.03,0.01 -0.04,0.02 0,0.01 0,0.04 -0.01,0.1 v 0.05 0.05 c 0,0.11 0,0.29 0.01,0.54 v 0.21 0.13 c 0,0.05 0,0.08 0.01,0.09 0,0.01 0.02,0.02 0.04,0.03 0.04,0.01 0.1,0.03 0.19,0.04 0,0 0.01,0.01 0.01,0.02 0,0 0,0.01 -0.01,0.02 h -0.04 c -0.05,0 -0.09,0 -0.14,-0.01 -0.05,0 -0.08,0 -0.08,0 -0.15,0 -0.24,0 -0.29,0 -0.03,0.01 -0.05,0.01 -0.06,0.01 0,0 -0.01,0 -0.01,-0.01 v -0.01 c 0,-0.01 0,-0.01 0,-0.02 0.02,-0.01 0.06,-0.02 0.1,-0.02 0.04,-0.01 0.07,-0.03 0.09,-0.04 0.01,-0.03 0.01,-0.08 0.01,-0.17 v -0.21 c 0,-0.02 0,-0.07 0.01,-0.13 0,-0.07 0,-0.17 0,-0.32 0,-0.11 0,-0.2 -0.01,-0.26 -0.01,0.03 -0.03,0.08 -0.07,0.17 l -0.02,0.04 v 0 l -0.16,0.38 -0.05,0.14 -0.08,0.18 c -0.03,0.08 -0.06,0.15 -0.08,0.21 -0.01,0.03 -0.02,0.05 -0.03,0.07 h -0.02 c -0.08,-0.24 -0.18,-0.48 -0.29,-0.73 -0.11,-0.24 -0.19,-0.41 -0.23,-0.49 -0.01,0.03 -0.02,0.12 -0.02,0.27 -0.01,0.18 -0.02,0.38 -0.02,0.6 0,0.06 0.01,0.14 0.02,0.22 0,0.02 0.01,0.04 0.03,0.05 0.02,0.02 0.06,0.02 0.14,0.02 0.03,0 0.05,0.01 0.08,0.01 0,0.01 0.01,0.02 0.01,0.02 0,0.01 0,0.01 -0.01,0.02 l -0.33,-0.01 c -0.03,0 -0.06,0.01 -0.11,0.01 -0.03,0 -0.07,0 -0.13,0 z m 1.84,-1.3 v -0.04 c 0.01,0 0.02,0 0.03,0 l 0.1,-0.01 c 0.08,-0.01 0.18,-0.01 0.28,-0.02 0.04,0 0.11,0 0.2,0 0.12,0 0.21,0.01 0.26,0.03 0.08,0.02 0.15,0.06 0.19,0.12 0.04,0.05 0.06,0.11 0.06,0.18 0,0.1 -0.08,0.19 -0.23,0.26 l -0.01,0.01 c 0.08,0.02 0.15,0.05 0.19,0.09 0.05,0.03 0.09,0.08 0.12,0.13 0.02,0.04 0.03,0.09 0.03,0.16 0,0.1 -0.05,0.2 -0.15,0.28 -0.09,0.08 -0.23,0.12 -0.4,0.12 h -0.16 l -0.16,0.01 c -0.14,0 -0.23,0 -0.25,0 -0.03,0 -0.05,0 -0.07,0 v -0.01 c 0,-0.01 0,-0.02 0,-0.02 0.01,-0.01 0.01,-0.01 0.03,-0.01 0.09,-0.02 0.14,-0.04 0.15,-0.04 0.01,-0.01 0.02,-0.02 0.02,-0.03 0.01,-0.03 0.02,-0.11 0.02,-0.22 0,-0.01 -0.01,-0.03 -0.01,-0.04 0,-0.05 0,-0.08 0,-0.09 v -0.11 c 0,-0.19 0,-0.35 0,-0.49 l -0.01,-0.21 v -0.03 c -0.06,-0.01 -0.11,-0.01 -0.16,-0.02 -0.03,0 -0.05,0 -0.07,0 z m 0.42,0.54 c 0.04,0 0.08,0.01 0.12,0.01 0.15,0 0.25,-0.04 0.31,-0.1 0.06,-0.07 0.08,-0.14 0.08,-0.21 0,-0.03 0,-0.06 -0.01,-0.09 -0.01,-0.03 -0.03,-0.06 -0.05,-0.08 -0.03,-0.03 -0.06,-0.05 -0.09,-0.06 -0.07,-0.02 -0.13,-0.03 -0.2,-0.03 -0.06,0 -0.11,0.01 -0.17,0.02 0,0.01 0,0.03 0,0.03 0,0.01 0,0.03 0.01,0.06 0,0.03 0,0.05 0,0.07 l -0.01,0.13 v 0.08 l 0.01,0.15 z m 0.26,0.72 c 0.07,0 0.13,-0.02 0.17,-0.04 0.03,-0.01 0.05,-0.03 0.08,-0.06 0.03,-0.03 0.06,-0.07 0.07,-0.11 0.02,-0.04 0.03,-0.08 0.03,-0.12 0,-0.03 -0.01,-0.07 -0.02,-0.11 -0.01,-0.04 -0.03,-0.08 -0.06,-0.11 -0.03,-0.03 -0.07,-0.06 -0.12,-0.08 -0.06,-0.02 -0.12,-0.03 -0.19,-0.03 -0.13,0 -0.2,0 -0.22,0 0,0.02 0,0.03 0,0.04 v 0.04 0.08 0.09 c 0,0.17 0.01,0.27 0.01,0.3 0.01,0.03 0.03,0.06 0.06,0.08 0.03,0.02 0.1,0.03 0.19,0.03 z m 0.69,0.04 c 0.01,-0.01 0.01,-0.01 0.02,-0.01 0.01,0 0.03,-0.01 0.06,-0.01 0.07,0 0.11,-0.01 0.13,-0.02 0.01,-0.01 0.01,-0.03 0.01,-0.06 v -0.07 -0.28 -0.12 -0.27 -0.31 c 0,-0.07 -0.01,-0.11 -0.02,-0.12 -0.01,-0.01 -0.05,-0.02 -0.11,-0.02 -0.03,0 -0.05,-0.01 -0.07,-0.01 -0.01,0 -0.02,-0.01 -0.02,-0.02 0,0 0.01,-0.01 0.01,-0.02 0.01,0 0.01,0 0.02,0 0.01,0 0.02,0 0.03,0 0.04,0 0.09,0 0.13,0 h 0.08 l 0.19,0.01 c 0.1,0 0.17,-0.01 0.22,-0.01 0.05,0 0.09,0 0.11,0 0.01,0 0.06,0 0.12,0 h 0.15 l 0.02,0.01 0.09,-0.01 0.01,0.01 c 0,0 0.01,0.01 0.01,0.02 0,0.01 0,0.02 -0.01,0.04 0,0.02 0,0.04 0,0.04 0,0.08 0,0.14 0,0.19 0,0 0,0.01 0,0.01 -0.01,0 -0.02,0 -0.02,-0.01 -0.01,-0.01 -0.02,-0.03 -0.03,-0.07 -0.02,-0.03 -0.04,-0.07 -0.06,-0.12 -0.02,-0.02 -0.04,-0.04 -0.05,-0.05 -0.01,0 -0.03,-0.01 -0.06,-0.01 0,0 -0.04,0 -0.09,0 -0.02,0 -0.04,0 -0.05,0 l -0.3,0.01 h -0.03 c -0.04,0 -0.06,0 -0.07,0.01 -0.01,0.02 -0.02,0.07 -0.02,0.15 0,0.01 0,0.09 0.01,0.26 v 0.14 c 0,0.01 0.01,0.01 0.02,0.01 h 0.02 c 0.01,0 0.03,0 0.05,0 0.04,0 0.06,0 0.08,0 0,0 0.01,0 0.02,0 0.07,0 0.17,0 0.29,0 0.04,-0.01 0.06,-0.02 0.07,-0.03 0.01,-0.01 0.02,-0.04 0.02,-0.1 0.01,-0.05 0.02,-0.08 0.04,-0.09 0.01,0 0.02,0 0.02,0.01 0.01,0 0.01,0.01 0.01,0.01 0,0.01 0,0.02 -0.01,0.03 0,0.02 0,0.11 0,0.24 0,0.04 0,0.08 0.01,0.13 0,0.04 0,0.07 0,0.07 0,0.01 0,0.02 0,0.03 -0.01,0 -0.01,0 -0.01,0 h -0.01 c -0.01,-0.02 -0.02,-0.05 -0.03,-0.09 -0.02,-0.07 -0.04,-0.12 -0.06,-0.14 -0.02,-0.01 -0.06,-0.02 -0.1,-0.02 -0.01,0 -0.03,0 -0.06,0 -0.02,0 -0.06,0 -0.11,0 h -0.07 c -0.1,0 -0.17,0 -0.2,0.01 v 0.03 0.2 0.12 0.12 c 0,0.08 0.01,0.12 0.02,0.13 0.01,0.02 0.04,0.02 0.08,0.02 h 0.06 c 0.01,0 0.03,0 0.07,0 0.04,0.01 0.09,0.01 0.14,0.01 0.14,0 0.23,-0.01 0.28,-0.02 0.04,-0.01 0.08,-0.03 0.11,-0.06 0.03,-0.03 0.07,-0.1 0.11,-0.2 0.02,-0.03 0.03,-0.04 0.04,-0.04 0.01,0 0.02,0 0.02,0.01 -0.02,0.07 -0.03,0.11 -0.03,0.14 -0.01,0.05 -0.01,0.1 -0.01,0.15 0,0.02 -0.01,0.04 -0.02,0.06 h -0.03 -0.3 -0.13 -0.32 -0.13 c -0.02,0 -0.04,0 -0.05,0 -0.13,0.01 -0.22,0.01 -0.28,0.01 -0.01,0 -0.02,0 -0.03,0 0,-0.01 0,-0.01 0,-0.02 v -0.01 z m 1.41,0 c 0.03,-0.01 0.06,-0.02 0.09,-0.02 0.05,-0.01 0.09,-0.02 0.12,-0.04 0.02,-0.04 0.03,-0.14 0.03,-0.3 v -0.17 -0.1 -0.08 -0.13 l -0.01,-0.35 c 0,-0.04 0,-0.07 -0.01,-0.08 -0.02,-0.02 -0.06,-0.03 -0.13,-0.05 -0.03,0 -0.05,-0.01 -0.06,-0.02 0,0 -0.01,-0.01 -0.01,-0.03 0.02,0 0.03,0 0.04,0 h 0.07 0.04 c 0.03,0 0.06,0 0.09,0.01 0.06,0 0.13,0 0.2,0 0.02,0 0.05,0 0.09,0 0.09,0 0.17,-0.01 0.21,-0.01 0.08,0 0.17,0.01 0.24,0.03 0.08,0.02 0.16,0.05 0.24,0.09 0.05,0.03 0.1,0.08 0.16,0.14 0.05,0.06 0.09,0.13 0.12,0.21 0.02,0.07 0.04,0.16 0.04,0.25 0,0.08 -0.02,0.16 -0.05,0.25 -0.03,0.08 -0.07,0.15 -0.12,0.21 -0.06,0.06 -0.11,0.1 -0.17,0.13 -0.05,0.03 -0.14,0.06 -0.25,0.08 -0.05,0.01 -0.14,0.01 -0.26,0.01 -0.08,0 -0.14,0 -0.19,0 -0.02,0 -0.05,-0.01 -0.07,-0.01 0,0 -0.01,0.01 -0.01,0.01 h -0.44 v 0 c 0,-0.01 0,-0.01 0,-0.02 z m 0.55,-0.05 c 0.05,0.02 0.1,0.03 0.16,0.03 0.07,0 0.14,-0.01 0.21,-0.03 0.07,-0.02 0.13,-0.06 0.19,-0.1 0.05,-0.04 0.09,-0.08 0.13,-0.14 0.03,-0.05 0.05,-0.09 0.07,-0.13 0.02,-0.06 0.03,-0.14 0.03,-0.24 0,-0.09 -0.02,-0.19 -0.06,-0.28 -0.03,-0.07 -0.07,-0.13 -0.14,-0.19 -0.07,-0.06 -0.15,-0.11 -0.24,-0.14 -0.1,-0.02 -0.2,-0.04 -0.3,-0.04 -0.08,0 -0.13,0.01 -0.17,0.03 0,0 -0.01,0.01 -0.01,0.01 -0.01,0.02 -0.01,0.04 -0.01,0.05 0,0.01 0,0.02 0,0.03 0,0.09 0.01,0.15 0.01,0.2 l -0.01,0.25 c 0,0.35 0.01,0.55 0.02,0.59 0.02,0.04 0.06,0.07 0.12,0.1 z m 1.14,0.05 c 0.03,-0.01 0.06,-0.02 0.09,-0.02 0.05,-0.01 0.09,-0.02 0.11,-0.04 0.02,-0.04 0.03,-0.14 0.03,-0.3 v -0.17 l 0.01,-0.1 -0.01,-0.08 0.01,-0.13 -0.01,-0.35 c 0,-0.04 0,-0.07 -0.01,-0.08 -0.02,-0.02 -0.06,-0.03 -0.14,-0.05 -0.02,0 -0.04,-0.01 -0.05,-0.02 -0.01,0 -0.01,-0.01 -0.01,-0.03 0.02,0 0.03,0 0.03,0 h 0.08 0.04 c 0.03,0 0.05,0 0.09,0.01 0.06,0 0.13,0 0.2,0 0.02,0 0.05,0 0.08,0 0.1,0 0.17,-0.01 0.22,-0.01 0.08,0 0.16,0.01 0.24,0.03 0.08,0.02 0.16,0.05 0.24,0.09 0.05,0.03 0.1,0.08 0.15,0.14 0.06,0.06 0.1,0.13 0.13,0.21 0.02,0.07 0.04,0.16 0.04,0.25 0,0.08 -0.02,0.16 -0.05,0.25 -0.03,0.08 -0.07,0.15 -0.13,0.21 -0.05,0.06 -0.1,0.1 -0.16,0.13 -0.06,0.03 -0.14,0.06 -0.26,0.08 -0.04,0.01 -0.13,0.01 -0.25,0.01 -0.08,0 -0.15,0 -0.2,0 -0.02,0 -0.04,-0.01 -0.06,-0.01 0,0 -0.01,0.01 -0.01,0.01 h -0.44 v 0 c 0,-0.01 0,-0.01 0,-0.02 z m 0.54,-0.05 c 0.06,0.02 0.11,0.03 0.17,0.03 0.07,0 0.14,-0.01 0.21,-0.03 0.07,-0.02 0.13,-0.06 0.18,-0.1 0.06,-0.04 0.1,-0.08 0.13,-0.14 0.04,-0.05 0.06,-0.09 0.08,-0.13 0.02,-0.06 0.03,-0.14 0.03,-0.24 0,-0.09 -0.02,-0.19 -0.06,-0.28 -0.03,-0.07 -0.08,-0.13 -0.14,-0.19 -0.07,-0.06 -0.15,-0.11 -0.25,-0.14 -0.09,-0.02 -0.19,-0.04 -0.3,-0.04 -0.07,0 -0.12,0.01 -0.16,0.03 0,0 -0.01,0.01 -0.01,0.01 -0.01,0.02 -0.01,0.04 -0.01,0.05 0,0.01 0,0.02 0,0.03 0,0.09 0,0.15 0,0.2 v 0.25 c 0,0.35 0.01,0.55 0.02,0.59 0.02,0.04 0.05,0.07 0.11,0.1 z m 1.17,0.05 c 0.01,-0.01 0.02,-0.01 0.02,-0.01 0.01,0 0.04,-0.01 0.06,-0.01 0.07,0 0.12,-0.01 0.13,-0.02 0.01,-0.01 0.02,-0.03 0.02,-0.06 v -0.07 -0.28 -0.12 -0.27 l -0.01,-0.31 c 0,-0.07 0,-0.11 -0.01,-0.12 -0.01,-0.01 -0.05,-0.02 -0.12,-0.02 -0.02,0 -0.05,-0.01 -0.07,-0.01 -0.01,0 -0.01,-0.01 -0.01,-0.02 0,0 0,-0.01 0,-0.02 0.01,0 0.02,0 0.02,0 0.01,0 0.02,0 0.04,0 0.04,0 0.08,0 0.13,0 h 0.08 l 0.19,0.01 c 0.09,0 0.1599998,-0.01 0.2199998,-0.01 0.05,0 0.08,0 0.1,0 0.02,0 0.06,0 0.12,0 h 0.16 l 0.01,0.01 0.09,-0.01 0.01,0.01 c 0.01,0 0.01,0.01 0.01,0.02 0,0.01 0,0.02 0,0.04 -0.01,0.02 -0.01,0.04 -0.01,0.04 0,0.08 0,0.14 0.01,0.19 0,0 0,0.01 -0.01,0.01 0,0 -0.01,0 -0.02,-0.01 -0.01,-0.01 -0.02,-0.03 -0.03,-0.07 -0.01,-0.03 -0.03,-0.07 -0.06,-0.12 -0.02,-0.02 -0.03,-0.04 -0.04,-0.05 -0.01,0 -0.03,-0.01 -0.06,-0.01 -0.01,0 -0.04,0 -0.1,0 -0.02,0 -0.03,0 -0.05,0 l -0.2999998,0.01 h -0.03 c -0.04,0 -0.06,0 -0.07,0.01 -0.01,0.02 -0.02,0.07 -0.02,0.15 0,0.01 0.01,0.09 0.01,0.26 v 0.14 c 0.01,0.01 0.02,0.01 0.02,0.01 h 0.02 c 0.01,0 0.03,0 0.06,0 0.03,0 0.06,0 0.07,0 0.01,0 0.02,0 0.02,0 0.08,0 0.18,0 0.3,0 0.03,-0.01 0.06,-0.02 0.06,-0.03 0.01,-0.01 0.02,-0.04 0.03,-0.1 0,-0.05 0.01,-0.08 0.03,-0.09 0.01,0 0.02,0 0.03,0.01 0,0 0,0.01 0,0.01 0,0.01 0,0.02 0,0.03 0,0.02 0,0.11 0,0.24 0,0.04 0,0.08 0,0.13 0.01,0.04 0.01,0.07 0.01,0.07 0,0.01 0,0.02 -0.01,0.03 0,0 -0.01,0 -0.01,0 h -0.01 c -0.01,-0.02 -0.02,-0.05 -0.03,-0.09 -0.02,-0.07 -0.04,-0.12 -0.06,-0.14 -0.02,-0.01 -0.05,-0.02 -0.1,-0.02 -0.01,0 -0.02,0 -0.05,0 -0.03,0 -0.07,0 -0.12,0 h -0.07 c -0.1,0 -0.1599998,0 -0.1899998,0.01 v 0.03 0.2 0.12 0.12 c 0,0.08 0,0.12 0.01,0.13 0.01,0.02 0.04,0.02 0.08,0.02 h 0.07 c 0,0 0.02,0 0.06,0 0.04,0.01 0.09,0.01 0.15,0.01 0.13,0 0.23,-0.01 0.27,-0.02 0.05,-0.01 0.09,-0.03 0.11,-0.06 0.03,-0.03 0.07,-0.1 0.12,-0.2 0.01,-0.03 0.02,-0.04 0.04,-0.04 0,0 0.01,0 0.02,0.01 -0.02,0.07 -0.03,0.11 -0.04,0.14 0,0.05 -0.01,0.1 -0.01,0.15 0,0.02 -0.01,0.04 -0.02,0.06 h -0.02 -0.3 -0.14 -0.3199998 -0.13 c -0.02,0 -0.03,0 -0.05,0 -0.12,0.01 -0.22,0.01 -0.28,0.01 -0.01,0 -0.02,0 -0.02,0 -0.01,-0.01 -0.01,-0.01 -0.01,-0.02 z m 1.4199998,0 c 0.02,-0.01 0.05,-0.02 0.09,-0.02 0.05,-0.01 0.09,-0.02 0.11,-0.04 0.02,-0.04 0.03,-0.14 0.03,-0.3 v -0.17 -0.1 -0.08 -0.13 -0.35 c 0,-0.04 -0.01,-0.07 -0.02,-0.08 -0.02,-0.02 -0.06,-0.03 -0.13,-0.05 -0.03,0 -0.05,-0.01 -0.05,-0.02 -0.01,0 -0.01,-0.01 -0.02,-0.03 0.02,0 0.03,0 0.04,0 h 0.08 0.03 c 0.03,0 0.06,0 0.09,0.01 0.07,0 0.14,0 0.21,0 0.01,0 0.04,0 0.08,0 0.1,0 0.17,-0.01 0.21,-0.01 0.09,0 0.17,0.01 0.25,0.03 0.07,0.02 0.15,0.05 0.23,0.09 0.06,0.03 0.11,0.08 0.16,0.14 0.05,0.06 0.09,0.13 0.12,0.21 0.03,0.07 0.04,0.16 0.04,0.25 0,0.08 -0.01,0.16 -0.04,0.25 -0.03,0.08 -0.08,0.15 -0.13,0.21 -0.05,0.06 -0.11,0.1 -0.16,0.13 -0.06,0.03 -0.15,0.06 -0.26,0.08 -0.05,0.01 -0.13,0.01 -0.25,0.01 -0.08,0 -0.15,0 -0.2,0 -0.02,0 -0.04,-0.01 -0.06,-0.01 -0.01,0 -0.01,0.01 -0.02,0.01 h -0.43 v 0 c -0.01,-0.01 -0.01,-0.01 -0.01,-0.02 z m 0.54,-0.05 c 0.05,0.02 0.11,0.03 0.16,0.03 0.08,0 0.15,-0.01 0.22,-0.03 0.07,-0.02 0.13,-0.06 0.18,-0.1 0.05,-0.04 0.1,-0.08 0.13,-0.14 0.03,-0.05 0.06,-0.09 0.07,-0.13 0.02,-0.06 0.03,-0.14 0.03,-0.24 0,-0.09 -0.02,-0.19 -0.06,-0.28 -0.02,-0.07 -0.07,-0.13 -0.14,-0.19 -0.07,-0.06 -0.15,-0.11 -0.24,-0.14 -0.09,-0.02 -0.19,-0.04 -0.3,-0.04 -0.07,0 -0.13,0.01 -0.16,0.03 -0.01,0 -0.01,0.01 -0.02,0.01 0,0.02 0,0.04 0,0.05 0,0.01 0,0.02 0,0.03 0,0.09 0,0.15 0,0.2 v 0.25 c 0,0.35 0.01,0.55 0.02,0.59 0.01,0.04 0.05,0.07 0.11,0.1 z"
   id="path438" />
 </g>
</svg>
